# 3ds Max Wavefront OBJ Exporter v0.97b - (c)2007 guruware
# File Created: 25.01.2015 14:15:44

mtllib felmoso.mtl

#
# object dobozok_b
#

v  27.0439 0.0000 -24.1558
v  1.4289 0.0000 20.2106
v  -32.8806 0.0000 0.4020
v  -7.2656 0.0000 -43.9644
v  22.4302 3.5385 -22.9196
v  -6.0294 3.5385 -39.3507
v  -28.2669 3.5385 -0.8342
v  0.1927 3.5385 15.5970
v  -7.2656 25.2875 -43.9644
v  27.0439 25.2875 -24.1558
v  -32.8806 25.2875 0.4020
v  1.4289 25.2875 20.2106
v  -6.0294 25.2875 -39.3507
v  22.4302 25.2875 -22.9196
v  -28.2669 25.2875 -0.8342
v  0.1927 25.2875 15.5970
# 16 vertices

vn 0.0000 -1.0000 -0.0000
vn 0.0000 1.0000 -0.0000
vn 0.5009 0.0000 -0.8655
vn 0.5000 0.0000 -0.8660
vn -0.8660 0.0000 -0.5000
vn -0.5003 0.0000 0.8659
vn -0.4998 0.0000 0.8661
vn 0.8658 0.0000 0.5004
vn 0.8663 0.0000 0.4995
vn -0.4997 0.0000 0.8662
vn -0.5000 0.0000 0.8660
vn -0.5003 0.0000 0.8658
vn 0.8660 0.0000 0.5001
vn 0.8664 0.0000 0.4993
vn -0.8660 0.0000 -0.5001
# 15 vertex normals

vt 1.0000 0.0000 0.0000
vt 1.0000 1.0000 0.0000
vt 0.0000 1.0000 0.0000
vt 0.0000 0.0000 0.0000
# 4 texture coords

g dobozok_b
usemtl wire_135059008
s off
f 1/1/1 2/2/1 3/3/1 4/4/1 
f 5/4/2 6/1/2 7/2/2 8/3/2 
f 1/4/3 4/1/4 9/2/4 10/3/3 
f 4/4/5 3/1/5 11/2/5 9/3/5 
f 3/4/6 2/1/7 12/2/7 11/3/6 
f 2/4/8 1/1/9 10/2/9 12/3/8 
f 10/3/2 9/2/2 13/1/2 14/4/2 
f 9/3/2 11/2/2 15/2/2 13/1/2 
f 11/3/2 12/2/2 16/3/2 15/2/2 
f 12/3/2 10/2/2 14/4/2 16/3/2 
f 14/4/10 13/1/11 6/1/12 5/4/10 
f 13/1/13 15/2/14 7/2/14 6/1/13 
f 15/2/4 16/3/4 8/3/4 7/2/4 
f 16/3/15 14/4/5 5/4/5 8/3/15 
# 14 polygons

#
# object barszekreny
#

v  -126.2825 0.6660 -391.5757
v  -126.2825 0.6660 -455.4500
v  188.6782 0.6660 -455.4500
v  188.6782 0.6660 -391.5757
v  -126.2825 189.7130 -391.5757
v  188.6782 189.7130 -391.5757
v  188.6782 189.7130 -455.4500
v  -126.2825 189.7130 -455.4500
v  188.6782 98.4646 -391.5757
v  -126.2825 98.4646 -391.5757
v  -126.2825 91.9145 -391.5757
v  188.6782 91.9145 -391.5757
v  188.6782 98.4646 -455.4500
v  188.6782 91.9145 -455.4500
v  -126.2825 98.4646 -455.4500
v  -126.2825 91.9145 -455.4500
v  175.3532 176.3881 -437.6759
v  -112.9575 176.3881 -437.6759
v  -112.9575 103.9293 -437.6759
v  175.3532 103.9293 -437.6759
v  -112.9575 13.9909 -437.6759
v  175.3532 13.9909 -437.6759
v  175.3532 86.4497 -437.6759
v  -112.9575 86.4497 -437.6759
v  -112.9575 176.3881 -391.5757
v  175.3532 176.3881 -391.5757
v  -112.9575 103.9293 -391.5757
v  175.3532 103.9293 -391.5757
v  175.3532 13.9909 -391.5757
v  -112.9575 13.9909 -391.5757
v  175.3532 86.4497 -391.5757
v  -112.9575 86.4497 -391.5757
# 32 vertices

vn 0.0000 -1.0000 -0.0000
vn 0.0000 1.0000 -0.0000
vn 0.0000 0.0000 1.0000
vn 1.0000 0.0000 -0.0000
vn 0.0000 0.0000 -1.0000
vn -1.0000 0.0000 -0.0000
# 6 vertex normals

vt 1.0000 0.0000 0.0000
vt 1.0000 1.0000 0.0000
vt 0.0000 1.0000 0.0000
vt 0.0000 0.0000 0.0000
vt 1.0000 0.5422 0.0000
vt 0.0000 0.5422 0.0000
vt 0.0000 0.4578 0.0000
vt 1.0000 0.4578 0.0000
# 8 texture coords

g barszekreny
usemtl asztal_szek
s off
f 17/5/16 18/6/16 19/7/16 20/8/16 
f 21/8/17 22/5/17 23/6/17 24/7/17 
f 25/9/18 26/10/18 27/11/18 28/12/18 
f 29/9/19 25/10/19 28/11/19 30/12/19 
f 31/9/20 29/10/20 30/11/20 32/12/20 
f 26/9/21 31/10/21 32/11/21 27/12/21 
f 33/6/18 34/7/18 35/10/18 36/9/18 
f 37/8/18 38/5/18 39/12/18 40/11/18 
f 23/6/19 22/7/19 25/10/19 29/9/19 
f 20/8/19 19/5/19 30/12/19 28/11/19 
f 24/6/20 23/7/20 29/10/20 31/9/20 
f 19/8/20 18/5/20 32/12/20 30/11/20 
f 21/6/21 24/7/21 31/10/21 26/9/21 
f 18/8/21 17/5/21 27/12/21 32/11/21 
f 22/5/18 21/8/18 41/7/18 42/6/18 
f 21/6/18 26/9/18 43/10/18 41/7/18 
f 26/10/18 25/9/18 44/9/18 43/10/18 
f 25/10/18 22/7/18 42/6/18 44/9/18 
f 17/5/18 20/8/18 45/5/18 46/8/18 
f 20/8/18 28/11/18 47/12/18 45/5/18 
f 28/12/18 27/11/18 48/11/18 47/12/18 
f 27/12/18 17/5/18 46/8/18 48/11/18 
f 42/6/16 41/7/16 34/7/16 33/6/16 
f 41/7/19 43/10/19 35/10/19 34/7/19 
f 43/10/17 44/9/17 36/9/17 35/10/17 
f 44/9/21 42/6/21 33/6/21 36/9/21 
f 46/8/17 45/5/17 38/5/17 37/8/17 
f 45/5/21 47/12/21 39/12/21 38/5/21 
f 47/12/16 48/11/16 40/11/16 39/12/16 
f 48/11/19 46/8/19 37/8/19 40/11/19 
# 30 polygons

#
# object dobozok_a
#

v  571.7227 0.0000 60.4599
v  568.4691 0.0000 23.2711
v  607.3562 0.0000 19.8689
v  610.6098 0.0000 57.0577
v  571.7227 60.2263 60.4599
v  610.6098 60.2263 57.0577
v  607.3562 60.2263 19.8689
v  568.4691 60.2263 23.2711
v  505.2455 0.0000 24.1949
v  505.2455 0.0000 -14.1103
v  562.7000 0.0000 -14.1103
v  562.7000 0.0000 24.1949
v  505.2455 39.5429 24.1949
v  562.7000 39.5429 24.1949
v  562.7000 39.5429 -14.1103
v  505.2455 39.5429 -14.1103
v  516.2190 39.5429 14.0409
v  525.8539 39.5429 -12.4306
v  548.9827 39.5429 -4.0124
v  539.3478 39.5429 22.4591
v  516.2190 62.0227 14.0409
v  539.3478 62.0227 22.4591
v  548.9827 62.0227 -4.0124
v  525.8539 62.0227 -12.4306
v  527.5931 0.0000 97.5882
v  498.2088 0.0000 55.6231
v  530.6613 0.0000 32.8996
v  560.0456 0.0000 74.8647
v  527.5931 25.2875 97.5882
v  560.0456 25.2875 74.8647
v  530.6613 25.2875 32.8996
v  498.2088 25.2875 55.6231
# 32 vertices

vn 0.0000 -1.0000 -0.0000
vn 0.0000 1.0000 -0.0000
vn 0.0872 0.0000 0.9962
vn 0.9962 0.0000 -0.0872
vn -0.0872 0.0000 -0.9962
vn -0.9962 0.0000 0.0872
vn 0.0000 0.0000 1.0000
vn 1.0000 0.0000 -0.0000
vn 0.0000 0.0000 -1.0000
vn -1.0000 0.0000 -0.0000
vn -0.3420 0.0000 0.9397
vn 0.9397 0.0000 0.3420
vn 0.3420 0.0000 -0.9397
vn -0.9397 0.0000 -0.3420
vn 0.5736 0.0000 0.8192
vn 0.8192 0.0000 -0.5736
vn -0.5736 0.0000 -0.8192
vn -0.8192 0.0000 0.5736
# 18 vertex normals

vt 1.0000 0.0000 0.0000
vt 1.0000 1.0000 0.0000
vt 0.0000 1.0000 0.0000
vt 0.0000 0.0000 0.0000
# 4 texture coords

g dobozok_a
usemtl wire_135059008
s off
f 49/13/22 50/14/22 51/15/22 52/16/22 
f 53/16/23 54/13/23 55/14/23 56/15/23 
f 49/16/24 52/13/24 54/14/24 53/15/24 
f 52/16/25 51/13/25 55/14/25 54/15/25 
f 51/16/26 50/13/26 56/14/26 55/15/26 
f 50/16/27 49/13/27 53/14/27 56/15/27 
f 57/13/22 58/14/22 59/15/22 60/16/22 
f 61/16/23 62/13/23 63/14/23 64/15/23 
f 57/16/28 60/13/28 62/14/28 61/15/28 
f 60/16/29 59/13/29 63/14/29 62/15/29 
f 59/16/30 58/13/30 64/14/30 63/15/30 
f 58/16/31 57/13/31 61/14/31 64/15/31 
f 65/13/22 66/14/22 67/15/22 68/16/22 
f 69/16/23 70/13/23 71/14/23 72/15/23 
f 65/16/32 68/13/32 70/14/32 69/15/32 
f 68/16/33 67/13/33 71/14/33 70/15/33 
f 67/16/34 66/13/34 72/14/34 71/15/34 
f 66/16/35 65/13/35 69/14/35 72/15/35 
f 73/13/22 74/14/22 75/15/22 76/16/22 
f 77/16/23 78/13/23 79/14/23 80/15/23 
f 73/16/36 76/13/36 78/14/36 77/15/36 
f 76/16/37 75/13/37 79/14/37 78/15/37 
f 75/16/38 74/13/38 80/14/38 79/15/38 
f 74/16/39 73/13/39 77/14/39 80/15/39 
# 24 polygons

#
# object dobozok_c_polcra
#

v  -698.6195 0.0000 -287.1822
v  -698.6195 0.0000 -331.9102
v  -662.9963 0.0000 -331.9102
v  -662.9963 0.0000 -287.1822
v  -698.6195 37.9374 -287.1822
v  -662.9963 37.9374 -287.1822
v  -662.9963 37.9374 -331.9102
v  -698.6195 37.9374 -331.9102
v  -741.7766 0.0000 -282.6017
v  -741.7766 0.0000 -336.4907
v  -703.8796 0.0000 -336.4907
v  -703.8796 0.0000 -282.6017
v  -741.7766 31.6145 -282.6017
v  -703.8796 31.6145 -282.6017
v  -703.8796 31.6145 -336.4907
v  -741.7766 31.6145 -336.4907
v  -784.3638 0.0000 -282.6017
v  -784.3638 0.0000 -336.4907
v  -752.9092 0.0000 -336.4907
v  -752.9092 0.0000 -282.6017
v  -784.3638 28.7692 -282.6017
v  -752.9092 28.7692 -282.6017
v  -752.9092 28.7692 -336.4907
v  -784.3638 28.7692 -336.4907
# 24 vertices

vn 0.0000 -1.0000 -0.0000
vn 0.0000 1.0000 0.0000
vn 0.0000 -0.0000 1.0000
vn 1.0000 0.0000 -0.0000
vn 0.0000 0.0000 -1.0000
vn -1.0000 0.0000 -0.0000
# 6 vertex normals

vt 1.0000 0.0000 0.0000
vt 1.0000 1.0000 0.0000
vt 0.0000 1.0000 0.0000
vt 0.0000 0.0000 0.0000
# 4 texture coords

g dobozok_c_polcra
usemtl wire_135059008
s off
f 81/17/40 82/18/40 83/19/40 84/20/40 
f 85/20/41 86/17/41 87/18/41 88/19/41 
f 81/20/42 84/17/42 86/18/42 85/19/42 
f 84/20/43 83/17/43 87/18/43 86/19/43 
f 83/20/44 82/17/44 88/18/44 87/19/44 
f 82/20/45 81/17/45 85/18/45 88/19/45 
f 89/17/40 90/18/40 91/19/40 92/20/40 
f 93/20/41 94/17/41 95/18/41 96/19/41 
f 89/20/42 92/17/42 94/18/42 93/19/42 
f 92/20/43 91/17/43 95/18/43 94/19/43 
f 91/20/44 90/17/44 96/18/44 95/19/44 
f 90/20/45 89/17/45 93/18/45 96/19/45 
f 97/17/40 98/18/40 99/19/40 100/20/40 
f 101/20/41 102/17/41 103/18/41 104/19/41 
f 97/20/42 100/17/42 102/18/42 101/19/42 
f 100/20/43 99/17/43 103/18/43 102/19/43 
f 99/20/44 98/17/44 104/18/44 103/19/44 
f 98/20/45 97/17/45 101/18/45 104/19/45 
# 18 polygons

#
# object felmoso
#

v  -173.9333 -1.3428 -51.8403
v  -171.5025 -1.3428 -51.8403
v  -171.5025 -1.3428 -48.7140
v  -173.9333 -1.3428 -48.7140
v  -173.9333 19.6899 -51.8403
v  -173.9333 19.6899 -48.7140
v  -171.5025 19.6899 -48.7140
v  -171.5025 19.6899 -51.8403
v  -172.3925 -1.3428 -48.2644
v  -169.9618 -1.3428 -48.2644
v  -169.9618 -1.3428 -45.1381
v  -172.3925 -1.3428 -45.1381
v  -172.3925 19.6899 -48.2644
v  -172.3925 19.6899 -45.1381
v  -169.9618 19.6899 -45.1381
v  -169.9618 19.6899 -48.2644
v  -170.6860 -1.3428 -42.1310
v  -170.6860 -1.3428 -44.5617
v  -167.5597 -1.3428 -44.5617
v  -167.5597 -1.3428 -42.1310
v  -170.6860 19.6899 -42.1310
v  -167.5597 19.6899 -42.1310
v  -167.5597 19.6899 -44.5617
v  -170.6860 19.6899 -44.5617
v  -167.1101 -1.3428 -40.5902
v  -167.1101 -1.3428 -43.0209
v  -163.9838 -1.3428 -43.0209
v  -163.9838 -1.3428 -40.5902
v  -167.1101 19.6899 -40.5902
v  -163.9838 19.6899 -40.5902
v  -163.9838 19.6899 -43.0209
v  -167.1101 19.6899 -43.0209
v  -163.5342 -1.3428 -40.5902
v  -163.5342 -1.3428 -43.0209
v  -160.4079 -1.3428 -43.0209
v  -160.4079 -1.3428 -40.5902
v  -163.5342 19.6899 -40.5902
v  -160.4079 19.6899 -40.5902
v  -160.4079 19.6899 -43.0209
v  -163.5342 19.6899 -43.0209
v  -159.9583 -1.3428 -42.1310
v  -159.9583 -1.3428 -44.5617
v  -156.8321 -1.3428 -44.5617
v  -156.8321 -1.3428 -42.1310
v  -159.9583 19.6899 -42.1310
v  -156.8321 19.6899 -42.1310
v  -156.8321 19.6899 -44.5617
v  -159.9583 19.6899 -44.5617
v  -155.0844 -1.3428 -44.7068
v  -157.5151 -1.3428 -44.7068
v  -157.5151 -1.3428 -47.8330
v  -155.0844 -1.3428 -47.8330
v  -155.0844 19.6899 -44.7068
v  -155.0844 19.6899 -47.8330
v  -157.5151 19.6899 -47.8330
v  -157.5151 19.6899 -44.7068
v  -153.5437 -1.3428 -48.2826
v  -155.9744 -1.3428 -48.2826
v  -155.9744 -1.3428 -51.4089
v  -153.5437 -1.3428 -51.4089
v  -153.5437 19.6899 -48.2826
v  -153.5437 19.6899 -51.4089
v  -155.9744 19.6899 -51.4089
v  -155.9744 19.6899 -48.2826
v  -153.5437 -1.3428 -51.8585
v  -155.9744 -1.3428 -51.8585
v  -155.9744 -1.3428 -54.9848
v  -153.5437 -1.3428 -54.9848
v  -153.5437 19.6899 -51.8585
v  -153.5437 19.6899 -54.9848
v  -155.9744 19.6899 -54.9848
v  -155.9744 19.6899 -51.8585
v  -155.0844 -1.3428 -55.4344
v  -157.5152 -1.3428 -55.4344
v  -157.5152 -1.3428 -58.5607
v  -155.0844 -1.3428 -58.5607
v  -155.0844 19.6899 -55.4344
v  -155.0844 19.6899 -58.5607
v  -157.5152 19.6899 -58.5607
v  -157.5152 19.6899 -55.4344
v  -156.8321 -1.3428 -61.7513
v  -156.8321 -1.3428 -59.3206
v  -159.9584 -1.3428 -59.3206
v  -159.9584 -1.3428 -61.7513
v  -156.8321 19.6899 -61.7513
v  -159.9584 19.6899 -61.7513
v  -159.9584 19.6899 -59.3206
v  -156.8321 19.6899 -59.3206
v  -160.4080 -1.3428 -63.2921
v  -160.4080 -1.3428 -60.8614
v  -163.5342 -1.3428 -60.8614
v  -163.5342 -1.3428 -63.2921
v  -160.4080 19.6899 -63.2921
v  -163.5342 19.6899 -63.2921
v  -163.5342 19.6899 -60.8614
v  -160.4080 19.6899 -60.8614
v  -163.9838 -1.3428 -63.2921
v  -163.9838 -1.3428 -60.8614
v  -167.1101 -1.3428 -60.8614
v  -167.1101 -1.3428 -63.2921
v  -163.9838 19.6899 -63.2921
v  -167.1101 19.6899 -63.2921
v  -167.1101 19.6899 -60.8614
v  -163.9838 19.6899 -60.8614
v  -167.5597 -1.3428 -61.7513
v  -167.5597 -1.3428 -59.3206
v  -170.6860 -1.3428 -59.3206
v  -170.6860 -1.3428 -61.7513
v  -167.5597 19.6899 -61.7513
v  -170.6860 19.6899 -61.7513
v  -170.6860 19.6899 -59.3206
v  -167.5597 19.6899 -59.3206
v  -172.3925 -1.3428 -58.9920
v  -169.9618 -1.3428 -58.9920
v  -169.9618 -1.3428 -55.8657
v  -172.3925 -1.3428 -55.8657
v  -172.3925 19.6899 -58.9920
v  -172.3925 19.6899 -55.8657
v  -169.9618 19.6899 -55.8657
v  -169.9618 19.6899 -58.9920
v  -173.9333 -1.3428 -55.4161
v  -171.5025 -1.3428 -55.4161
v  -171.5025 -1.3428 -52.2899
v  -173.9333 -1.3428 -52.2899
v  -173.9333 19.6899 -55.4161
v  -173.9333 19.6899 -52.2899
v  -171.5025 19.6899 -52.2899
v  -171.5025 19.6899 -55.4161
v  -166.6349 21.6144 -48.7357
v  -166.6349 21.6144 -55.1287
v  -160.8460 21.6144 -55.1287
v  -160.8460 21.6144 -48.7357
v  -166.6349 117.6297 -48.7357
v  -160.8460 117.6297 -48.7357
v  -160.8460 117.6297 -55.1287
v  -166.6349 117.6297 -55.1287
v  -149.9406 18.4084 -51.9322
v  -156.8405 18.4084 -63.8832
v  -156.8405 22.4381 -63.8832
v  -149.9406 22.4381 -51.9322
v  -170.6404 18.4084 -63.8832
v  -170.6404 22.4381 -63.8832
v  -177.5403 18.4084 -51.9322
v  -177.5403 22.4381 -51.9322
v  -170.6404 18.4084 -39.9812
v  -170.6404 22.4381 -39.9812
v  -156.8405 18.4084 -39.9812
v  -156.8405 22.4381 -39.9812
# 148 vertices

vn 0.0000 -1.0000 -0.0000
vn 0.0000 1.0000 -0.0000
vn -1.0000 0.0000 -0.0000
vn -0.0000 0.0000 1.0000
vn 1.0000 0.0000 0.0000
vn 0.0000 0.0000 -1.0000
vn 0.0000 0.0000 1.0000
vn -0.0000 -0.0000 1.0000
vn -1.0000 -0.0000 0.0000
vn -1.0000 0.0000 0.0000
vn -1.0000 -0.0000 -0.0000
vn 1.0000 0.0000 -0.0000
vn -0.0000 0.0000 -1.0000
vn 0.0000 -0.0000 1.0000
vn -0.0000 -0.0000 -1.0000
vn 0.5000 0.0000 -0.8660
vn -0.5000 0.0000 -0.8660
vn -0.5000 0.0000 0.8660
vn 0.5000 0.0000 0.8660
# 19 vertex normals

vt 1.0000 0.0000 0.0000
vt 1.0000 1.0000 0.0000
vt 0.0000 1.0000 0.0000
vt 0.0000 0.0000 0.0000
vt 0.7500 0.0000 0.0000
vt 0.9167 0.0000 0.0000
vt 0.9167 1.0000 0.0000
vt 0.7500 1.0000 0.0000
vt 1.0833 0.0000 0.0000
vt 1.0833 1.0000 0.0000
vt 0.0833 0.0000 0.0000
vt 0.2500 0.0000 0.0000
vt 0.2500 1.0000 0.0000
vt 0.0833 1.0000 0.0000
vt 0.4167 0.0000 0.0000
vt 0.4167 1.0000 0.0000
vt 0.5833 0.0000 0.0000
vt 0.5833 1.0000 0.0000
vt 0.9330 0.2500 0.0000
vt 0.5000 0.0000 0.0000
vt 0.0670 0.2500 0.0000
vt 0.5000 1.0000 0.0000
vt 0.0670 0.7500 0.0000
vt 0.9330 0.7500 0.0000
# 24 texture coords

g felmoso
usemtl helyrehozok
s off
f 105/21/46 106/22/46 107/23/46 108/24/46 
f 109/24/47 110/21/47 111/22/47 112/23/47 
f 105/24/48 108/21/48 110/22/48 109/23/48 
f 108/24/49 107/21/49 111/22/49 110/23/49 
f 107/24/50 106/21/50 112/22/50 111/23/50 
f 106/24/51 105/21/51 109/22/51 112/23/51 
f 113/21/46 114/22/46 115/23/46 116/24/46 
f 117/24/47 118/21/47 119/22/47 120/23/47 
f 113/24/48 116/21/48 118/22/48 117/23/48 
f 116/24/52 115/21/52 119/22/52 118/23/52 
f 115/24/50 114/21/50 120/22/50 119/23/50 
f 114/24/51 113/21/51 117/22/51 120/23/51 
f 121/21/46 122/22/46 123/23/46 124/24/46 
f 125/24/47 126/21/47 127/22/47 128/23/47 
f 121/24/53 124/21/53 126/22/53 125/23/53 
f 124/24/50 123/21/50 127/22/50 126/23/50 
f 123/24/51 122/21/51 128/22/51 127/23/51 
f 122/24/54 121/21/54 125/22/54 128/23/55 
f 129/21/46 130/22/46 131/23/46 132/24/46 
f 133/24/47 134/21/47 135/22/47 136/23/47 
f 129/24/52 132/21/52 134/22/52 133/23/52 
f 132/24/50 131/21/50 135/22/50 134/23/50 
f 131/24/51 130/21/51 136/22/51 135/23/51 
f 130/24/56 129/21/56 133/22/56 136/23/56 
f 137/21/46 138/22/46 139/23/46 140/24/46 
f 141/24/47 142/21/47 143/22/47 144/23/47 
f 137/24/49 140/21/49 142/22/49 141/23/49 
f 140/24/57 139/21/57 143/22/57 142/23/57 
f 139/24/51 138/21/51 144/22/51 143/23/51 
f 138/24/48 137/21/48 141/22/48 144/23/48 
f 145/21/46 146/22/46 147/23/46 148/24/46 
f 149/24/47 150/21/47 151/22/47 152/23/47 
f 145/24/49 148/21/49 150/22/49 149/23/49 
f 148/24/50 147/21/50 151/22/50 150/23/50 
f 147/24/51 146/21/51 152/22/51 151/23/51 
f 146/24/48 145/21/48 149/22/48 152/23/48 
f 153/21/46 154/22/46 155/23/46 156/24/46 
f 157/24/47 158/21/47 159/22/47 160/23/47 
f 153/24/57 156/21/57 158/22/57 157/23/57 
f 156/24/51 155/21/51 159/22/51 158/23/51 
f 155/24/55 154/21/55 160/22/55 159/23/55 
f 154/24/52 153/21/52 157/22/52 160/23/52 
f 161/21/46 162/22/46 163/23/46 164/24/46 
f 165/24/47 166/21/47 167/22/47 168/23/47 
f 161/24/57 164/21/57 166/22/57 165/23/57 
f 164/24/51 163/21/51 167/22/51 166/23/51 
f 163/24/48 162/21/48 168/22/48 167/23/48 
f 162/24/49 161/21/49 165/22/49 168/23/49 
f 169/21/46 170/22/46 171/23/46 172/24/46 
f 173/24/47 174/21/47 175/22/47 176/23/47 
f 169/24/57 172/21/57 174/22/57 173/23/57 
f 172/24/51 171/21/51 175/22/51 174/23/51 
f 171/24/48 170/21/48 176/22/48 175/23/48 
f 170/24/53 169/21/49 173/22/53 176/23/53 
f 177/21/46 178/22/46 179/23/46 180/24/46 
f 181/24/47 182/21/47 183/22/47 184/23/47 
f 177/24/57 180/21/57 182/22/57 181/23/57 
f 180/24/58 179/21/58 183/22/58 182/23/58 
f 179/24/48 178/21/48 184/22/48 183/23/48 
f 178/24/59 177/21/59 181/22/59 184/23/59 
f 185/21/46 186/22/46 187/23/46 188/24/46 
f 189/24/47 190/21/47 191/22/47 192/23/47 
f 185/24/51 188/21/51 190/22/51 189/23/51 
f 188/24/48 187/21/48 191/22/48 190/23/48 
f 187/24/49 186/21/49 192/22/49 191/23/49 
f 186/24/57 185/21/57 189/22/57 192/23/57 
f 193/21/46 194/22/46 195/23/46 196/24/46 
f 197/24/47 198/21/47 199/22/47 200/23/47 
f 193/24/51 196/21/51 198/22/51 197/23/51 
f 196/24/48 195/21/48 199/22/48 198/23/48 
f 195/24/49 194/21/49 200/22/49 199/23/49 
f 194/24/50 193/21/50 197/22/50 200/23/50 
f 201/21/46 202/22/46 203/23/46 204/24/46 
f 205/24/47 206/21/47 207/22/47 208/23/47 
f 201/24/51 204/21/51 206/22/51 205/23/51 
f 204/24/48 203/21/48 207/22/48 206/23/48 
f 203/24/49 202/21/49 208/22/49 207/23/49 
f 202/24/50 201/21/50 205/22/50 208/23/50 
f 209/21/46 210/22/46 211/23/46 212/24/46 
f 213/24/47 214/21/47 215/22/47 216/23/47 
f 209/24/51 212/21/51 214/22/51 213/23/51 
f 212/24/54 211/21/54 215/22/54 214/23/55 
f 211/24/53 210/21/49 216/22/53 215/23/53 
f 210/24/50 209/21/50 213/22/50 216/23/50 
f 217/21/46 218/22/46 219/23/46 220/24/46 
f 221/24/47 222/21/47 223/22/47 224/23/47 
f 217/24/56 220/21/48 222/22/56 221/23/56 
f 220/24/52 219/21/52 223/22/52 222/23/52 
f 219/24/50 218/21/50 224/22/50 223/23/50 
f 218/24/60 217/21/60 221/22/60 224/23/58 
f 225/21/46 226/22/46 227/23/46 228/24/46 
f 229/24/47 230/21/47 231/22/47 232/23/47 
f 225/24/48 228/21/48 230/22/48 229/23/48 
f 228/24/49 227/21/49 231/22/49 230/23/49 
f 227/24/50 226/21/50 232/22/50 231/23/50 
f 226/24/51 225/21/51 229/22/51 232/23/51 
f 233/21/46 234/22/46 235/23/46 236/24/46 
f 237/24/47 238/21/47 239/22/47 240/23/47 
f 233/24/53 236/21/49 238/22/53 237/23/53 
f 236/24/57 235/21/57 239/22/57 238/23/57 
f 235/24/51 234/21/51 240/22/51 239/23/51 
f 234/24/48 233/21/48 237/22/48 240/23/48 
f 241/25/50 242/26/61 243/27/61 244/28/50 
f 242/26/61 245/29/62 246/30/62 243/27/61 
f 245/31/62 247/32/55 248/33/55 246/34/62 
f 247/32/55 249/35/63 250/36/63 248/33/55 
f 249/35/63 251/37/64 252/38/64 250/36/63 
f 251/37/64 241/25/50 244/28/50 252/38/64 
f 249/39/46 247/40/46 245/41/46 241/42/46 
f 245/41/46 242/43/46 241/42/46 
f 251/44/46 249/39/46 241/42/46 
f 243/43/47 246/41/47 248/40/47 252/44/47 
f 248/40/47 250/39/47 252/44/47 
f 244/42/47 243/43/47 252/44/47 
# 110 polygons - 4 triangles

