# 3ds Max Wavefront OBJ Exporter v0.97b - (c)2007 guruware
# File Created: 25.01.2015 14:18:26

mtllib iroasztal.mtl

#
# object iroasztal
#

v  -96.7869 53.9042 19.3707
v  68.5284 53.9042 19.3707
v  68.5284 53.9042 -31.9341
v  -96.7869 53.9042 -31.9341
v  68.5284 -0.0000 19.3707
v  -96.7869 -0.0000 19.3707
v  68.5284 -0.0000 -31.9341
v  -96.7869 -0.0000 -31.9341
v  -85.4707 43.8399 -31.9341
v  -85.4707 43.8399 9.4383
v  -85.4707 -0.0000 9.4383
v  -85.4707 -0.0000 -31.9341
v  57.2122 43.8399 -31.9341
v  57.2122 43.8399 9.4383
v  57.2122 -0.0000 9.4383
v  57.2122 -0.0000 -31.9341
# 16 vertices

vn 0.0000 1.0000 -0.0000
vn 0.0000 0.0000 1.0000
vn 1.0000 0.0000 -0.0000
vn -1.0000 0.0000 -0.0000
vn 0.0000 -1.0000 -0.0000
vn 0.0000 0.0000 -1.0000
# 6 vertex normals

vt 0.0000 0.0000 0.0000
vt 1.0000 0.0000 0.0000
vt 1.0000 1.0000 0.0000
vt 0.0000 1.0000 0.0000
vt 0.1936 1.0000 0.0000
vt 1.0000 0.1867 0.0000
vt 0.1936 0.1867 0.0000
vt 0.0000 0.8064 0.0000
vt 1.0000 0.8064 0.0000
vt 0.0000 0.1867 0.0000
vt 0.8064 1.0000 0.0000
vt 0.8064 0.1867 0.0000
vt 0.0450 0.1936 0.0000
vt 0.0450 1.0000 0.0000
vt 0.9550 0.8133 0.0000
vt 0.9550 -0.0000 0.0000
vt 0.0450 0.8133 0.0000
vt 0.0450 0.0000 0.0000
vt 0.9550 0.1936 0.0000
vt 0.9550 1.0000 0.0000
# 20 texture coords

g iroasztal
usemtl wire_135059008
s off
f 1/1/1 2/2/1 3/3/1 4/4/1 
f 5/2/2 2/3/2 1/4/2 6/1/2 
f 5/1/3 7/2/3 3/3/3 2/4/3 
f 8/1/4 6/2/4 1/3/4 4/4/4 
f 9/5/3 10/3/3 11/6/3 12/7/3 
f 9/8/5 13/9/5 14/2/5 10/1/5 
f 15/10/4 14/4/4 13/11/4 16/12/4 
f 14/3/6 15/6/6 11/10/6 10/4/6 
f 7/4/5 5/1/5 15/13/5 16/14/5 
f 8/2/6 4/3/6 9/15/6 12/16/6 
f 3/4/6 13/17/6 9/15/6 4/3/6 
f 7/1/6 16/18/6 13/17/6 3/4/6 
f 6/2/5 11/19/5 15/13/5 5/1/5 
f 8/3/5 12/20/5 11/19/5 6/2/5 
# 14 polygons

