# 3ds Max Wavefront OBJ Exporter v0.97b - (c)2007 guruware
# File Created: 25.01.2015 14:19:07

mtllib irodaszek.mtl

#
# object irodaszek
#

v  -4.9797 0.0000 5.0901
v  12.6257 0.0000 5.0901
v  12.6257 0.0000 23.5380
v  -0.3735 0.0000 18.0893
v  12.6257 4.2932 23.5380
v  12.6257 4.2932 5.0901
v  -4.9797 4.2932 5.0901
v  -0.3735 4.2932 18.0893
v  30.2311 0.0000 5.0901
v  30.2311 4.2932 5.0901
v  25.6248 4.2932 18.0893
v  25.6248 0.0000 18.0893
v  12.6257 0.0000 -13.3578
v  12.6257 4.2932 -13.3578
v  25.6248 4.2932 -7.9091
v  25.6248 0.0000 -7.9091
v  -0.3735 4.2932 -7.9091
v  -0.3735 0.0000 -7.9091
v  8.9062 4.1551 1.5428
v  8.9062 29.1498 1.5428
v  16.3451 29.1498 1.5428
v  16.3451 4.1551 1.5428
v  8.9062 4.1551 9.2538
v  16.3451 4.1551 9.2538
v  16.3451 29.1498 9.2538
v  8.9062 29.1498 9.2538
v  -2.4940 28.2829 23.8188
v  -2.4940 28.2829 -6.4205
v  27.7453 28.2829 -6.4205
v  27.7453 28.2829 23.8188
v  -2.4940 37.3547 23.8188
v  27.7453 37.3547 23.8188
v  27.7453 37.3547 -6.4205
v  -2.4940 37.3547 -6.4205
v  31.0642 50.2580 -5.7205
v  31.0642 57.4499 -5.7205
v  38.4728 57.4499 -5.7205
v  38.4728 50.2580 -5.7205
v  31.0642 50.2580 13.9653
v  38.4728 50.2580 13.9653
v  38.4728 57.4499 13.9653
v  31.0642 57.4499 13.9653
v  -2.4940 32.3355 -15.9787
v  -2.4940 87.0686 -15.9787
v  27.7453 87.0686 -15.9787
v  27.7453 32.3355 -15.9787
v  -2.4940 32.3355 -6.9069
v  27.7453 32.3355 -6.9069
v  27.7453 87.0686 -6.9069
v  -2.4940 87.0686 -6.9069
v  -13.0887 50.2580 -5.7205
v  -13.0887 57.4499 -5.7205
v  -5.6801 57.4499 -5.7205
v  -5.6801 50.2580 -5.7205
v  -13.0887 50.2580 13.9653
v  -5.6801 50.2580 13.9653
v  -5.6801 57.4499 13.9653
v  -13.0887 57.4499 13.9653
# 58 vertices

vn 0.0000 -1.0000 -0.0000
vn 0.0000 1.0000 -0.0000
vn 0.0000 0.0000 1.0000
vn -0.3866 0.0000 0.9223
vn 1.0000 0.0000 -0.0000
vn 0.9426 0.0000 0.3340
vn 0.0000 0.0000 -1.0000
vn 0.3866 0.0000 -0.9223
vn -1.0000 0.0000 -0.0000
vn -1.0000 0.0000 0.0000
vn -0.9426 0.0000 -0.3340
vn 0.9426 0.0000 -0.3340
vn -0.9426 0.0000 0.3340
vn 0.3866 0.0000 0.9223
vn -0.3866 0.0000 -0.9223
vn 0.0000 -0.0000 1.0000
# 16 vertex normals

vt 1.0000 0.5000 0.0000
vt 0.5000 0.5000 0.0000
vt 0.5000 0.0000 0.0000
vt 1.0000 0.0000 0.0000
vt 0.0000 0.5000 0.0000
vt 0.0000 0.0000 0.0000
vt 0.5000 1.0000 0.0000
vt 0.0000 1.0000 0.0000
vt 1.0000 1.0000 0.0000
# 9 texture coords

g irodaszek
usemtl wire_135059008
s off
f 1/1/1 2/2/1 3/3/1 4/4/1 
f 5/3/2 6/2/2 7/5/2 8/6/2 
f 3/3/3 5/7/3 8/8/4 4/6/4 
f 9/3/5 10/7/5 11/8/6 12/6/6 
f 13/3/7 14/7/7 15/8/8 16/6/8 
f 1/3/9 7/7/10 17/8/11 18/6/11 
f 18/9/1 13/7/1 2/2/1 1/1/1 
f 15/9/2 14/7/2 6/2/2 10/1/2 
f 16/4/12 15/9/12 10/7/5 9/3/5 
f 4/4/13 8/9/13 7/7/10 1/3/9 
f 9/5/1 12/6/1 3/3/1 2/2/1 
f 11/4/2 10/1/2 6/2/2 5/3/2 
f 12/4/14 11/9/14 5/7/3 3/3/3 
f 18/4/15 17/9/15 14/7/7 13/3/7 
f 16/8/1 9/5/1 2/2/1 13/7/1 
f 17/8/2 7/5/2 6/2/2 14/7/2 
f 19/4/7 20/9/7 21/8/7 22/6/7 
f 23/6/16 24/4/16 25/9/16 26/8/16 
f 19/6/1 22/4/1 24/9/1 23/8/1 
f 22/6/5 21/4/5 25/9/5 24/8/5 
f 21/6/2 20/4/2 26/9/2 25/8/2 
f 20/6/9 19/4/9 23/9/9 26/8/9 
f 27/4/1 28/9/1 29/8/1 30/6/1 
f 31/6/2 32/4/2 33/9/2 34/8/2 
f 27/6/3 30/4/3 32/9/3 31/8/3 
f 30/6/5 29/4/5 33/9/5 32/8/5 
f 29/6/7 28/4/7 34/9/7 33/8/7 
f 28/6/9 27/4/9 31/9/9 34/8/9 
f 35/4/7 36/9/7 37/8/7 38/6/7 
f 39/6/3 40/4/3 41/9/3 42/8/3 
f 35/6/1 38/4/1 40/9/1 39/8/1 
f 38/6/5 37/4/5 41/9/5 40/8/5 
f 37/6/2 36/4/2 42/9/2 41/8/2 
f 36/6/9 35/4/9 39/9/9 42/8/9 
f 43/4/7 44/9/7 45/8/7 46/6/7 
f 47/6/3 48/4/3 49/9/3 50/8/3 
f 43/6/1 46/4/1 48/9/1 47/8/1 
f 46/6/5 45/4/5 49/9/5 48/8/5 
f 45/6/2 44/4/2 50/9/2 49/8/2 
f 44/6/9 43/4/9 47/9/9 50/8/9 
f 51/4/7 52/9/7 53/8/7 54/6/7 
f 55/6/3 56/4/3 57/9/3 58/8/3 
f 51/6/1 54/4/1 56/9/1 55/8/1 
f 54/6/5 53/4/5 57/9/5 56/8/5 
f 53/6/2 52/4/2 58/9/2 57/8/2 
f 52/6/9 51/4/9 55/9/9 58/8/9 
# 46 polygons

