# 3ds Max Wavefront OBJ Exporter v0.97b - (c)2007 guruware
# File Created: 25.01.2015 14:27:03

mtllib papirkupac_nagy.mtl

#
# object papirkupac_nagy
#

v  18.7462 53.9042 69.9130
v  18.7462 53.9042 43.5147
v  41.4481 53.9042 43.5147
v  41.4481 53.9042 69.9130
v  21.1092 74.8529 71.6228
v  43.4924 74.8529 67.8327
v  39.0852 74.8529 41.8048
v  16.7019 74.8529 45.5950
v  42.3917 67.8700 69.0389
v  19.7518 67.8700 70.7151
v  17.5594 60.8871 68.7914
v  40.1614 60.8871 70.9185
v  40.4426 67.8700 42.7126
v  42.6349 60.8871 44.6363
v  17.8026 67.8700 44.3888
v  20.0329 60.8871 42.5092
# 16 vertices

vn 0.0000 -1.0000 -0.0000
vn 0.0000 1.0000 -0.0000
vn 0.0188 0.1614 0.9867
vn 0.1042 -0.2044 0.9733
vn -0.0318 -0.0033 0.9995
vn -0.0555 0.1046 0.9930
vn 0.9813 0.1920 -0.0153
vn 0.9668 -0.2328 -0.1056
vn 0.9995 -0.0110 0.0291
vn 0.9924 0.1106 0.0540
vn -0.0188 0.1614 -0.9867
vn -0.1042 -0.2044 -0.9733
vn 0.0318 -0.0033 -0.9995
vn 0.0555 0.1046 -0.9930
vn -0.9813 0.1920 0.0153
vn -0.9668 -0.2328 0.1056
vn -0.9995 -0.0110 -0.0291
vn -0.9924 0.1106 -0.0540
vn 0.0926 0.0944 0.9912
vn 0.1648 -0.1586 0.9735
vn -0.0764 0.0913 0.9929
vn 0.0000 -0.1425 0.9898
vn 0.9889 0.1182 -0.0898
vn 0.9696 -0.1812 -0.1642
vn 0.9902 0.1155 0.0784
vn 0.9859 -0.1676 -0.0000
vn -0.0926 0.0944 -0.9912
vn -0.1648 -0.1586 -0.9735
vn 0.0764 0.0913 -0.9929
vn 0.0000 -0.1425 -0.9898
vn -0.9889 0.1182 0.0898
vn -0.9696 -0.1812 0.1642
vn -0.9902 0.1155 -0.0784
vn -0.9859 -0.1676 -0.0000
# 34 vertex normals

vt 1.0000 0.0000 0.0000
vt 1.0000 1.0000 0.0000
vt 0.0000 1.0000 0.0000
vt 0.0000 0.0000 0.0000
vt 1.0000 0.6667 0.0000
vt 0.0000 0.6667 0.0000
vt 0.0000 0.3333 0.0000
vt 1.0000 0.3333 0.0000
# 8 texture coords

g papirkupac_nagy
usemtl feher
s off
f 1/1/1 2/2/1 3/3/1 4/4/1 
f 5/4/2 6/1/2 7/2/2 8/3/2 
f 9/5/3 10/6/4 11/7/5 12/8/6 
f 13/5/7 9/6/8 12/7/9 14/8/10 
f 15/5/11 13/6/12 14/7/13 16/8/14 
f 10/5/15 15/6/16 16/7/17 11/8/18 
f 6/2/19 5/3/20 10/6/4 9/5/3 
f 1/4/21 4/1/22 12/8/6 11/7/5 
f 7/2/23 6/3/24 9/6/8 13/5/7 
f 4/4/25 3/1/26 14/8/10 12/7/9 
f 8/2/27 7/3/28 13/6/12 15/5/11 
f 3/4/29 2/1/30 16/8/14 14/7/13 
f 5/2/31 8/3/32 15/6/16 10/5/15 
f 2/4/33 1/1/34 11/8/18 16/7/17 
# 14 polygons

