# 3ds Max Wavefront OBJ Exporter v0.97b - (c)2007 guruware
# File Created: 25.01.2015 14:28:05

mtllib patkany.mtl

#
# object patkany
#

v  -16.7368 11.9690 7.2004
v  -0.9695 11.9690 7.2004
v  -1.0552 15.8748 7.2004
v  -16.7368 15.8748 7.2004
v  28.4214 11.9690 7.2004
v  -0.8837 8.9997 7.2004
v  28.4214 8.9997 7.2004
v  28.4214 21.9005 7.2004
v  -1.0552 21.9005 7.2004
v  28.4214 15.8748 7.2004
v  -28.1108 6.3235 7.2004
v  -28.1108 6.3235 -1.3994
v  -23.1259 6.3235 -1.3994
v  -23.1259 6.3235 7.2004
v  -16.7861 6.3235 7.2004
v  -16.7626 8.9997 7.2004
v  -23.0242 8.9997 7.2004
v  -28.1108 8.9997 7.2004
v  28.4214 6.3235 7.2004
v  28.4214 6.3235 -1.3994
v  28.4214 8.9997 -1.3994
v  -0.7980 6.3235 7.2004
v  -23.0242 11.9690 7.2004
v  28.4214 21.9005 -1.3994
v  -1.0552 21.9005 -1.3994
v  -1.0552 15.8748 -1.3994
v  -16.7368 15.8748 -1.3994
v  -16.7368 11.9690 -1.3994
v  -23.0242 11.9690 -1.3994
v  -23.0242 8.9997 -1.3994
v  -28.1108 8.9997 -1.3994
v  -16.7861 6.3235 -1.3994
v  28.4214 11.9690 -1.3994
v  -0.7980 6.3235 -1.3994
v  28.4214 15.8748 -1.3994
v  -16.7368 11.9690 -9.9992
v  -16.7368 15.8748 -9.9992
v  -1.0552 15.8748 -9.9992
v  -0.9695 11.9690 -9.9992
v  28.4214 11.9690 -9.9992
v  28.4214 8.9997 -9.9992
v  -0.8837 8.9997 -9.9992
v  28.4214 21.9005 -9.9992
v  28.4214 15.8748 -9.9992
v  -1.0552 21.9005 -9.9992
v  -28.1108 6.3235 -9.9992
v  -23.1259 6.3235 -9.9992
v  -23.0242 8.9997 -9.9992
v  -16.7626 8.9997 -9.9992
v  -16.7861 6.3235 -9.9992
v  -28.1108 8.9997 -9.9992
v  28.4214 6.3235 -9.9992
v  -0.7980 6.3235 -9.9992
v  -23.0242 11.9690 -9.9992
v  -13.4894 15.7284 -9.9992
v  -4.8707 15.7284 -9.9992
v  -4.8707 15.7284 -6.2826
v  -13.4894 15.7284 -6.2826
v  -13.4894 23.6028 -9.9992
v  -13.4894 23.6028 -6.2826
v  -4.8707 23.6028 -6.2826
v  -4.8707 23.6028 -9.9992
v  -12.1287 16.4745 -9.9992
v  -12.1287 21.6273 -9.9992
v  -6.2315 21.6273 -9.9992
v  -6.2315 16.4745 -9.9992
v  -13.4894 15.7284 7.2004
v  -13.4894 15.7284 3.4838
v  -4.8707 15.7284 3.4838
v  -4.8707 15.7284 7.2004
v  -13.4894 23.6028 7.2004
v  -4.8707 23.6028 7.2004
v  -4.8707 23.6028 3.4838
v  -13.4894 23.6028 3.4838
v  -12.1287 16.4745 7.2004
v  -6.2315 16.4745 7.2004
v  -6.2315 21.6273 7.2004
v  -12.1287 21.6273 7.2004
v  28.3399 13.1864 0.6693
v  28.3399 16.6322 0.6693
v  28.3399 16.6322 -3.4681
v  28.3399 13.1864 -3.4681
v  41.9709 13.1864 0.6693
v  41.9709 13.1864 -3.4681
v  41.9709 35.6067 0.6693
v  41.9709 35.6067 -3.4681
v  27.9866 35.6067 0.6693
v  27.9866 35.6067 -3.4681
v  27.9866 44.0489 0.6693
v  27.9866 44.0489 -3.4681
v  24.1816 44.0489 0.6693
v  24.1816 44.0489 -3.4681
v  24.1816 31.9901 0.6693
v  24.1816 31.9901 -3.4681
v  38.5824 31.9901 0.6693
v  38.5824 31.9901 -3.4681
v  38.5824 16.6533 0.6693
v  38.5824 16.6533 -3.4681
v  22.2022 0.0000 7.2004
v  22.2022 0.0000 2.6940
v  27.9837 0.0000 2.6940
v  27.9837 0.0000 7.2004
v  22.2022 5.8270 7.2004
v  27.9837 5.8270 7.2004
v  27.9837 5.8270 2.6940
v  22.2022 5.8270 2.6940
v  -5.4101 0.0000 7.2004
v  -5.4101 0.0000 2.6940
v  0.3714 0.0000 2.6940
v  0.3714 0.0000 7.2004
v  -5.4101 5.8270 7.2004
v  0.3714 5.8270 7.2004
v  0.3714 5.8270 2.6940
v  -5.4101 5.8270 2.6940
v  -34.0577 6.3235 0.4589
v  -34.0577 6.3235 -3.2577
v  -28.1108 6.3235 -3.2577
v  -28.1108 6.3235 0.4589
v  -34.0577 13.1742 0.4589
v  -28.1108 13.1742 0.4589
v  -28.1108 13.1742 -3.2577
v  -34.0577 13.1742 -3.2577
v  22.2022 0.0000 -9.9992
v  27.9837 0.0000 -9.9992
v  27.9837 0.0000 -5.4927
v  22.2022 0.0000 -5.4927
v  22.2022 5.8270 -9.9992
v  22.2022 5.8270 -5.4927
v  27.9837 5.8270 -5.4927
v  27.9837 5.8270 -9.9992
v  -5.4101 0.0000 -9.9992
v  0.3714 0.0000 -9.9992
v  0.3714 0.0000 -5.4927
v  -5.4101 0.0000 -5.4927
v  -5.4101 5.8270 -9.9992
v  -5.4101 5.8270 -5.4927
v  0.3714 5.8270 -5.4927
v  0.3714 5.8270 -9.9992
v  -13.1243 9.8851 7.6946
v  -13.1243 9.8851 3.9780
v  -11.0972 9.8851 3.9780
v  -11.0972 9.8851 7.6946
v  -13.1243 12.2997 7.6946
v  -11.0972 12.2997 7.6946
v  -11.0972 12.2997 3.9780
v  -13.1243 12.2997 3.9780
v  -13.1243 9.8851 -6.9384
v  -13.1243 9.8851 -10.6550
v  -11.0972 9.8851 -10.6550
v  -11.0972 9.8851 -6.9384
v  -13.1243 12.2997 -6.9384
v  -11.0972 12.2997 -6.9384
v  -11.0972 12.2997 -10.6550
v  -13.1243 12.2997 -10.6550
# 154 vertices

vn 0.0000 -0.0000 1.0000
vn -0.0000 -0.0000 1.0000
vn -0.0000 0.0000 1.0000
vn 0.0000 0.0000 1.0000
vn 0.0000 -1.0000 -0.0000
vn 1.0000 0.0000 -0.0000
vn 0.0000 1.0000 -0.0000
vn 0.0000 1.0000 0.0000
vn -1.0000 -0.0000 -0.0000
vn -1.0000 0.0000 -0.0000
vn 0.0000 -1.0000 0.0000
vn -0.0000 -1.0000 -0.0000
vn 1.0000 0.0000 0.0000
vn 0.0000 0.0000 -1.0000
vn -0.0000 0.0000 -1.0000
vn -0.0021 1.0000 0.0000
vn -0.0021 1.0000 -0.0000
# 17 vertex normals

vt -142.8989 -34.2613 0.0000
vt -9.5152 -34.2613 0.0000
vt -10.2407 -1.2204 0.0000
vt -142.8989 -1.2204 0.0000
vt 239.1166 -34.2613 0.0000
vt -8.7897 -59.3798 0.0000
vt 239.1166 -59.3798 0.0000
vt 239.1166 49.7540 0.0000
vt -10.2407 49.7540 0.0000
vt 239.1166 -1.2204 0.0000
vt -239.1166 -82.0189 0.0000
vt -196.9469 -82.0189 0.0000
vt -143.3153 -82.0189 0.0000
vt -143.1170 -59.3798 0.0000
vt -196.0870 -59.3798 0.0000
vt -239.1167 -59.3798 0.0000
vt 239.1166 -82.0189 0.0000
vt -8.0642 -82.0189 0.0000
vt -196.0870 -34.2613 0.0000
vt 1.0000 0.0000 0.0000
vt 0.0000 0.0000 0.0000
vt 0.0000 1.0000 0.0000
vt 1.0000 1.0000 0.0000
vt -48.4780 -111.6320 0.0000
vt -48.4780 -82.4824 0.0000
vt 66.8336 -111.6320 0.0000
vt 66.8336 78.0313 0.0000
vt -51.4668 78.0313 0.0000
vt -51.4668 149.4480 0.0000
vt -83.6552 149.4480 0.0000
vt -83.6552 47.4373 0.0000
vt 38.1685 47.4373 0.0000
vt 38.1685 -82.3043 0.0000
# 33 texture coords

g patkany
usemtl akadalyozok
s off
f 1/1/1 2/2/2 3/3/3 4/4/4 
f 5/5/1 2/2/2 6/6/1 7/7/1 
f 8/8/2 9/9/1 3/3/3 10/10/3 
f 11/11/5 12/11/5 13/12/5 14/12/5 
f 14/12/4 15/13/4 16/14/1 17/15/1 
f 18/16/4 11/11/4 14/12/4 17/15/1 
f 19/17/6 20/17/6 21/7/6 7/7/6 
f 10/10/3 3/3/3 2/2/2 5/5/1 
f 22/18/4 19/17/4 7/7/1 6/6/1 
f 15/13/4 22/18/4 6/6/1 16/14/1 
f 2/2/2 1/1/1 16/14/1 6/6/1 
f 1/1/1 23/19/1 17/15/1 16/14/1 
f 9/9/7 8/8/7 24/8/8 25/9/8 
f 3/3/9 9/9/9 25/9/9 26/3/9 
f 4/4/8 3/3/8 26/3/8 27/4/8 
f 1/1/9 4/4/9 27/4/9 28/1/9 
f 23/19/8 1/1/8 28/1/8 29/19/8 
f 17/15/10 23/19/10 29/19/10 30/15/10 
f 18/16/8 17/15/8 30/15/8 31/16/8 
f 11/11/9 18/16/9 31/16/9 12/11/9 
f 15/13/11 14/12/5 13/12/5 32/13/12 
f 5/5/13 7/7/6 21/7/6 33/5/13 
f 19/17/12 22/18/12 34/18/12 20/17/12 
f 8/8/6 10/10/13 35/10/13 24/8/6 
f 22/18/12 15/13/11 32/13/12 34/18/12 
f 10/10/13 5/5/13 33/5/13 35/10/13 
f 36/1/14 37/4/14 38/3/15 39/2/15 
f 40/5/14 41/7/14 42/6/14 39/2/15 
f 43/8/15 44/10/15 38/3/15 45/9/14 
f 46/11/5 47/12/5 13/12/5 12/11/5 
f 47/12/14 48/15/14 49/14/14 50/13/14 
f 51/16/14 48/15/14 47/12/14 46/11/14 
f 52/17/6 41/7/6 21/7/6 20/17/6 
f 44/10/15 40/5/14 39/2/15 38/3/15 
f 53/18/14 42/6/14 41/7/14 52/17/14 
f 50/13/14 49/14/14 42/6/14 53/18/14 
f 39/2/15 42/6/14 49/14/14 36/1/14 
f 36/1/14 49/14/14 48/15/14 54/19/14 
f 45/9/8 25/9/8 24/8/8 43/8/8 
f 38/3/9 26/3/9 25/9/9 45/9/9 
f 37/4/8 27/4/8 26/3/8 38/3/8 
f 36/1/9 28/1/9 27/4/9 37/4/9 
f 54/19/8 29/19/8 28/1/8 36/1/8 
f 48/15/10 30/15/10 29/19/10 54/19/10 
f 51/16/8 31/16/8 30/15/8 48/15/8 
f 46/11/9 12/11/9 31/16/9 51/16/9 
f 50/13/5 32/13/12 13/12/5 47/12/5 
f 40/5/13 33/5/13 21/7/6 41/7/6 
f 52/17/12 20/17/12 34/18/12 53/18/12 
f 43/8/6 24/8/6 35/10/13 44/10/13 
f 53/18/12 34/18/12 32/13/12 50/13/5 
f 44/10/13 35/10/13 33/5/13 40/5/13 
f 55/20/5 56/21/5 57/22/5 58/23/5 
f 59/21/8 60/22/8 61/23/8 62/20/8 
f 63/21/14 64/22/14 65/23/14 66/20/14 
f 56/21/6 62/22/6 61/23/6 57/20/6 
f 57/21/1 61/22/1 60/23/1 58/20/1 
f 58/21/10 60/22/10 59/23/10 55/20/10 
f 67/20/5 68/23/5 69/22/5 70/21/5 
f 71/21/8 72/20/8 73/23/8 74/22/8 
f 75/21/1 76/20/1 77/23/1 78/22/1 
f 70/21/6 69/20/6 73/23/6 72/22/6 
f 69/21/14 68/20/14 74/23/14 73/22/14 
f 68/21/10 67/20/10 71/23/10 74/22/10 
f 79/24/10 80/25/10 81/25/10 82/24/10 
f 83/26/5 79/24/5 82/24/5 84/26/5 
f 85/27/6 83/26/6 84/26/6 86/27/6 
f 87/28/7 85/27/7 86/27/7 88/28/7 
f 89/29/6 87/28/6 88/28/6 90/29/6 
f 91/30/8 89/29/8 90/29/8 92/30/8 
f 93/31/10 91/30/10 92/30/10 94/31/10 
f 95/32/5 93/31/5 94/31/5 96/32/5 
f 97/33/10 95/32/10 96/32/10 98/33/10 
f 80/25/16 97/33/17 98/33/16 81/25/16 
f 82/24/15 81/25/15 98/33/15 84/26/15 
f 84/26/15 98/33/15 96/32/14 86/27/14 
f 88/28/15 86/27/14 96/32/14 94/31/15 
f 90/29/15 88/28/15 94/31/15 92/30/14 
f 89/29/1 91/30/1 93/31/1 87/28/1 
f 87/28/1 93/31/1 95/32/2 85/27/2 
f 83/26/1 85/27/2 95/32/2 97/33/1 
f 79/24/1 83/26/1 97/33/1 80/25/1 
f 99/20/5 100/23/5 101/22/5 102/21/5 
f 103/21/8 104/20/8 105/23/8 106/22/8 
f 99/21/1 102/20/1 104/23/1 103/22/1 
f 102/21/6 101/20/6 105/23/6 104/22/6 
f 101/21/14 100/20/14 106/23/14 105/22/14 
f 100/21/10 99/20/10 103/23/10 106/22/10 
f 107/20/5 108/23/5 109/22/5 110/21/5 
f 111/21/8 112/20/8 113/23/8 114/22/8 
f 107/21/1 110/20/1 112/23/1 111/22/1 
f 110/21/6 109/20/6 113/23/6 112/22/6 
f 109/21/14 108/20/14 114/23/14 113/22/14 
f 108/21/10 107/20/10 111/23/10 114/22/10 
f 115/20/5 116/23/5 117/22/5 118/21/5 
f 119/21/8 120/20/8 121/23/8 122/22/8 
f 115/21/1 118/20/1 120/23/1 119/22/1 
f 118/21/6 117/20/6 121/23/6 120/22/6 
f 117/21/14 116/20/14 122/23/14 121/22/14 
f 116/21/10 115/20/10 119/23/10 122/22/10 
f 123/20/5 124/21/5 125/22/5 126/23/5 
f 127/21/8 128/22/8 129/23/8 130/20/8 
f 123/21/14 127/22/14 130/23/14 124/20/14 
f 124/21/6 130/22/6 129/23/6 125/20/6 
f 125/21/1 129/22/1 128/23/1 126/20/1 
f 126/21/10 128/22/10 127/23/10 123/20/10 
f 131/20/5 132/21/5 133/22/5 134/23/5 
f 135/21/8 136/22/8 137/23/8 138/20/8 
f 131/21/14 135/22/14 138/23/14 132/20/14 
f 132/21/6 138/22/6 137/23/6 133/20/6 
f 133/21/1 137/22/1 136/23/1 134/20/1 
f 134/21/10 136/22/10 135/23/10 131/20/10 
f 139/20/5 140/23/5 141/22/5 142/21/5 
f 143/21/8 144/20/8 145/23/8 146/22/8 
f 139/21/1 142/20/1 144/23/1 143/22/1 
f 142/21/6 141/20/6 145/23/6 144/22/6 
f 141/21/14 140/20/14 146/23/14 145/22/14 
f 140/21/10 139/20/10 143/23/10 146/22/10 
f 147/20/5 148/23/5 149/22/5 150/21/5 
f 151/21/7 152/20/7 153/23/7 154/22/7 
f 147/21/1 150/20/1 152/23/1 151/22/1 
f 150/21/6 149/20/6 153/23/6 152/22/6 
f 149/21/14 148/20/14 154/23/14 153/22/14 
f 148/21/10 147/20/10 151/23/10 154/22/10 
f 56/21/14 55/20/14 63/21/14 66/20/14 
f 55/20/15 59/23/15 64/22/15 63/21/15 
f 59/21/14 62/20/14 65/23/14 64/22/14 
f 62/22/14 56/21/14 66/20/14 65/23/14 
f 67/20/4 70/21/4 76/20/4 75/21/4 
f 70/21/1 72/22/1 77/23/1 76/20/2 
f 72/20/4 71/21/4 78/22/4 77/23/4 
f 71/23/1 67/20/1 75/21/1 78/22/2 
# 132 polygons

