# 3ds Max Wavefront OBJ Exporter v0.97b - (c)2007 guruware
# File Created: 25.01.2015 14:29:03

mtllib piszoar.mtl

#
# object piszoar
#

v  9.6695 25.2704 19.7547
v  4.8430 39.6125 19.7527
v  3.9693 38.6104 24.2408
v  8.4346 27.2014 25.7274
v  -6.8178 43.3319 19.7480
v  -6.8151 42.8416 23.8864
v  -18.4823 39.6037 19.7433
v  -17.6029 38.6022 24.2314
v  -23.3175 25.2580 19.7414
v  -22.0731 27.1898 25.7141
v  -22.4131 16.6943 19.7424
v  -21.4540 18.9849 27.3107
v  -18.4916 9.1107 19.7434
v  -6.8308 3.1736 19.7481
v  -6.8183 8.6592 38.0765
v  -17.6060 11.3290 33.2079
v  4.8337 9.1195 19.7528
v  3.9663 11.3372 33.2173
v  8.7583 16.7049 19.7537
v  7.8123 18.9949 27.3225
v  6.2368 28.9058 32.4312
v  2.4156 38.3837 30.0398
v  0.6487 36.1818 30.0225
v  3.8873 28.9048 32.4312
v  -6.8122 41.8669 29.6768
v  -6.8130 38.5217 29.8914
v  -16.0428 38.3759 30.0391
v  -14.2770 36.1755 30.0219
v  -19.8674 28.8948 32.4312
v  -17.5179 28.8958 32.4312
v  -19.1478 24.1761 36.0494
v  -16.8695 24.1769 36.0494
v  -16.0432 19.8768 40.0070
v  -6.8138 16.7623 43.1754
v  -6.8141 18.3801 42.4928
v  -14.2768 20.4663 40.0070
v  2.4152 19.8846 40.0070
v  0.6489 20.9763 40.0070
v  5.5196 24.1855 36.0494
v  3.2413 24.1846 36.0494
v  1.9043 33.5339 23.4164
v  5.6889 26.4005 26.3560
v  4.9303 17.6882 29.8327
v  1.9013 14.7218 31.2407
v  -6.8192 13.0222 32.0731
v  -15.5421 14.7166 31.2433
v  -18.5730 17.6819 29.8345
v  -19.3273 26.3930 26.3547
v  -15.5391 33.5287 23.4166
v  -6.8160 35.7409 22.3801
v  -6.8198 23.3899 26.8906
v  -6.8249 22.8999 19.7480
# 52 vertices

vn 0.9780 0.0815 0.1922
vn 0.6870 0.6767 0.2648
vn 0.7000 0.6730 0.2390
vn 0.9640 0.1787 0.1968
vn -0.0231 0.9903 0.1373
vn -0.0116 0.9888 0.1487
vn -0.6571 0.7077 0.2598
vn -0.6759 0.6980 0.2366
vn -0.9809 0.0658 0.1831
vn -0.9657 0.1669 0.1987
vn -0.9303 -0.2927 0.2209
vn -0.9539 -0.1872 0.2344
vn -0.6788 -0.7009 0.2188
vn -0.0201 -0.9650 0.2616
vn -0.0136 -0.7826 0.6223
vn -0.6801 -0.6140 0.4005
vn 0.7007 -0.6892 0.1845
vn 0.6918 -0.5961 0.4075
vn 0.9305 -0.2933 0.2194
vn 0.9571 -0.1806 0.2265
vn -0.0214 0.4685 0.8832
vn -0.1053 0.0857 0.9907
vn -0.1031 0.0938 0.9902
vn -0.0002 0.4559 0.8900
vn -0.0047 0.0586 0.9983
vn -0.0090 0.0595 0.9982
vn 0.1130 0.1073 0.9878
vn 0.1453 0.1155 0.9826
vn -0.0002 0.4532 0.8914
vn 0.0185 0.4180 0.9082
vn -0.0179 0.6457 0.7634
vn -0.0003 0.6808 0.7325
vn -0.1866 0.5482 0.8152
vn -0.0037 0.3848 0.9230
vn -0.0033 0.3915 0.9202
vn -0.1571 0.5252 0.8364
vn 0.2769 0.4480 0.8501
vn 0.2263 0.4334 0.8723
vn 0.0338 0.6540 0.7557
vn -0.0003 0.7114 0.7028
vn 0.6678 0.7182 0.1954
vn 0.9509 0.1987 0.2373
vn 0.0050 0.9868 0.1618
vn -0.6579 0.7235 0.2092
vn -0.9390 0.2246 0.2605
vn -0.9261 -0.1453 0.3481
vn -0.6988 -0.3836 0.6037
vn -0.0097 -0.5410 0.8410
vn 0.6841 -0.3660 0.6309
vn 0.9365 -0.0984 0.3367
vn -0.6684 -0.7299 0.1430
vn -0.9514 -0.2607 -0.1637
vn -0.9530 -0.2602 -0.1551
vn -0.6181 -0.7614 0.1955
vn -0.8858 0.2527 -0.3893
vn -0.9352 0.0751 -0.3460
vn -0.5301 0.6849 -0.4999
vn -0.6364 0.5517 -0.5391
vn -0.2120 0.8691 -0.4468
vn -0.3382 0.7860 -0.5175
vn 0.2783 0.8170 -0.5050
vn 0.5340 0.6219 -0.5728
vn 0.6087 0.6523 -0.4516
vn 0.3722 0.8254 -0.4246
vn 0.8389 0.2391 -0.4889
vn 0.9371 0.1432 -0.3185
vn 0.9572 -0.2361 -0.1673
vn 0.9567 -0.2305 -0.1776
vn 0.6609 -0.7303 0.1726
vn 0.6096 -0.7732 0.1746
vn 0.2688 -0.9033 0.3343
vn 0.2778 -0.9046 0.3232
vn -0.2782 -0.9042 0.3239
vn -0.2875 -0.8982 0.3326
vn -0.0467 0.3593 0.9320
vn -0.0248 0.3429 0.9390
vn 0.0246 0.3429 0.9390
vn 0.0463 0.3592 0.9321
vn 0.0502 0.3742 0.9260
vn 0.0119 0.4390 0.8984
vn 0.0018 0.4471 0.8945
vn -0.0018 0.4471 0.8945
vn -0.0121 0.4388 0.8985
vn -0.0504 0.3739 0.9261
vn 0.0004 -0.0000 -1.0000
vn 0.0004 0.0001 -1.0000
vn 0.0003 -0.0001 -1.0000
vn 0.0003 0.0000 -1.0000
vn 0.0004 -0.0001 -1.0000
# 89 vertex normals

vt 0.7500 0.0000 0.0000
vt 0.8750 0.0000 0.0000
vt 0.8750 1.0000 0.0000
vt 0.7500 1.0000 0.0000
vt 1.0000 0.0000 0.0000
vt 1.0000 1.0000 0.0000
vt 0.0000 0.0000 0.0000
vt 0.1250 0.0000 0.0000
vt 0.1250 1.0000 0.0000
vt 0.0000 1.0000 0.0000
vt 0.2500 0.0000 0.0000
vt 0.2500 1.0000 0.0000
vt 0.3125 0.0000 0.0000
vt 0.3125 1.0000 0.0000
vt 0.3750 0.0000 0.0000
vt 0.5000 0.0000 0.0000
vt 0.5000 1.0000 0.0000
vt 0.3750 1.0000 0.0000
vt 0.6250 0.0000 0.0000
vt 0.6250 1.0000 0.0000
vt 0.6875 0.0000 0.0000
vt 0.6875 1.0000 0.0000
vt 0.1464 0.8536 0.0000
vt 0.0000 0.5000 0.0000
vt 0.1464 0.1464 0.0000
vt 0.6768 0.0732 0.0000
vt 1.0000 0.5000 0.0000
vt 0.8536 0.1464 0.0000
vt 0.8536 0.8536 0.0000
vt 0.6768 0.9268 0.0000
vt 0.5354 0.5000 0.0000
# 31 texture coords

g piszoar
usemtl feher
s off
f 1/1/1 2/2/2 3/3/3 4/4/4 
f 2/2/2 5/5/5 6/6/6 3/3/3 
f 5/7/5 7/8/7 8/9/8 6/10/6 
f 7/8/7 9/11/9 10/12/10 8/9/8 
f 11/13/11 12/14/12 10/12/10 9/11/9 
f 13/15/13 14/16/14 15/17/15 16/18/16 
f 14/16/14 17/19/17 18/20/18 15/17/15 
f 17/19/17 19/21/19 20/22/20 18/20/18 
f 21/4/21 22/3/22 23/23/23 24/17/24 
f 22/3/22 25/6/25 26/24/26 23/23/23 
f 25/10/25 27/9/27 28/25/28 26/24/26 
f 27/9/27 29/12/29 30/16/30 28/25/28 
f 31/14/31 32/26/32 30/16/30 29/12/29 
f 33/18/33 34/17/34 35/27/35 36/28/36 
f 34/17/34 37/20/37 38/29/38 35/27/35 
f 39/22/39 40/30/40 38/29/38 37/20/37 
f 13/15/13 16/18/16 12/14/12 11/13/11 
f 19/21/19 1/1/1 4/4/4 20/22/20 
f 31/14/31 33/18/33 36/28/36 32/26/32 
f 39/22/39 21/4/21 24/17/24 40/30/40 
f 4/4/4 3/3/3 22/3/41 21/4/42 
f 3/3/3 6/6/6 25/6/43 22/3/41 
f 6/10/6 8/9/8 27/9/44 25/10/43 
f 8/9/8 10/12/10 29/12/45 27/9/44 
f 10/12/10 12/14/12 31/14/46 29/12/45 
f 12/14/12 16/18/16 33/18/47 31/14/46 
f 16/18/16 15/17/15 34/17/48 33/18/47 
f 15/17/15 18/20/18 37/20/49 34/17/48 
f 18/20/18 20/22/20 39/22/50 37/20/49 
f 20/22/20 4/4/4 21/4/42 39/22/50 
f 41/23/51 42/17/52 24/17/53 23/23/54 
f 42/17/52 43/30/55 40/30/56 24/17/53 
f 43/30/55 44/29/57 38/29/58 40/30/56 
f 44/29/57 45/27/59 35/27/60 38/29/58 
f 45/27/61 46/28/62 36/28/63 35/27/64 
f 46/28/62 47/26/65 32/26/66 36/28/63 
f 47/26/65 48/16/67 30/16/68 32/26/66 
f 48/16/67 49/25/69 28/25/70 30/16/68 
f 49/25/69 50/24/71 26/24/72 28/25/70 
f 50/24/73 41/23/51 23/23/54 26/24/74 
f 42/17/75 41/23/75 51/31/75 
f 41/23/76 50/24/76 51/31/76 
f 50/24/77 49/25/77 51/31/77 
f 49/25/78 48/16/78 51/31/78 
f 48/16/79 47/26/79 51/31/79 
f 47/26/80 46/28/80 51/31/80 
f 46/28/81 45/27/81 51/31/81 
f 45/27/82 44/29/82 51/31/82 
f 44/29/83 43/30/83 51/31/83 
f 43/30/84 42/17/84 51/31/84 
f 2/2/85 1/1/85 52/31/85 
f 1/1/86 19/21/86 52/31/86 
f 19/21/87 17/19/87 52/31/87 
f 17/19/85 14/16/85 52/31/85 
f 14/16/85 13/15/85 52/31/85 
f 13/15/88 11/13/88 52/31/88 
f 11/13/89 9/11/89 52/31/89 
f 9/11/85 7/8/85 52/31/85 
f 7/8/85 5/7/85 52/31/85 
f 5/5/85 2/2/85 52/31/85 
# 40 polygons - 20 triangles

