# 3ds Max Wavefront OBJ Exporter v0.97b - (c)2007 guruware
# File Created: 25.01.2015 14:31:35

mtllib polcosszekreny.mtl

#
# object polcosszekreny
#

v  -118.0423 211.2615 57.3478
v  33.0075 211.2615 57.3478
v  33.0075 211.2615 0.0643
v  -118.0423 211.2615 0.0643
v  -118.0423 4.7096 57.3478
v  -118.0423 4.7096 0.0643
v  33.0075 4.7096 57.3478
v  33.0075 4.7096 0.0643
v  -107.9320 148.8454 57.3478
v  22.2252 148.8454 57.3478
v  22.2252 148.8455 0.0643
v  -107.9320 148.8455 0.0643
v  -107.9320 195.0463 57.3478
v  -107.9320 195.0463 0.0643
v  22.2252 195.0463 57.3478
v  22.2252 195.0463 0.0643
v  -107.9320 86.1994 57.3478
v  22.2252 86.1994 57.3478
v  22.2252 86.1994 0.0643
v  -107.9320 86.1994 0.0643
v  -107.9320 132.4002 57.3478
v  -107.9320 132.4002 0.0643
v  22.2252 132.4002 57.3478
v  22.2252 132.4002 0.0643
v  -107.9320 23.5533 57.3478
v  22.2252 23.5533 57.3478
v  22.2252 23.5533 0.0643
v  -107.9320 23.5533 0.0643
v  -107.9320 69.7542 57.3478
v  -107.9320 69.7542 0.0643
v  22.2252 69.7542 57.3478
v  22.2252 69.7542 0.0643
# 32 vertices

vn 0.0000 1.0000 0.0000
vn -1.0000 0.0000 -0.0000
vn 0.0000 -1.0000 -0.0000
vn 1.0000 0.0000 -0.0000
vn -0.0000 0.0000 -1.0000
vn -0.0000 -0.0000 -1.0000
vn 0.0000 0.0000 -1.0000
vn 0.0000 -0.0000 -1.0000
vn 0.0000 0.0000 1.0000
vn 0.0000 -0.0000 1.0000
vn -0.0000 -0.0000 1.0000
vn -0.0000 0.0000 1.0000
# 12 vertex normals

vt -191.8333 262.3210 0.0000
vt 191.8333 262.3210 0.0000
vt -191.8333 -262.3210 0.0000
vt 191.8333 -262.3210 0.0000
vt -166.1531 103.7842 0.0000
vt 164.4461 103.7842 0.0000
vt -166.1531 221.1344 0.0000
vt 164.4461 221.1344 0.0000
vt -166.1531 -55.3369 0.0000
vt 164.4461 -55.3369 0.0000
vt -166.1531 62.0133 0.0000
vt 164.4461 62.0133 0.0000
vt -166.1531 -214.4579 0.0000
vt 164.4461 -214.4579 0.0000
vt -166.1531 -97.1077 0.0000
vt 164.4461 -97.1077 0.0000
# 16 texture coords

g polcosszekreny
usemtl wire_135059008
s off
f 1/1/1 2/2/1 3/2/1 4/1/1 
f 5/3/2 1/1/2 4/1/2 6/3/2 
f 7/4/3 5/3/3 6/3/3 8/4/3 
f 2/2/4 7/4/4 8/4/4 3/2/4 
f 9/5/1 10/6/1 11/6/1 12/5/1 
f 13/7/4 9/5/4 12/5/4 14/7/4 
f 15/8/3 13/7/3 14/7/3 16/8/3 
f 10/6/2 15/8/2 16/8/2 11/6/2 
f 17/9/1 18/10/1 19/10/1 20/9/1 
f 21/11/4 17/9/4 20/9/4 22/11/4 
f 23/12/3 21/11/3 22/11/3 24/12/3 
f 18/10/2 23/12/2 24/12/2 19/10/2 
f 25/13/1 26/14/1 27/14/1 28/13/1 
f 29/15/4 25/13/4 28/13/4 30/15/4 
f 31/16/3 29/15/3 30/15/3 32/16/3 
f 26/14/2 31/16/2 32/16/2 27/14/2 
f 19/10/5 24/12/6 8/4/5 32/16/6 
f 27/14/5 32/16/6 8/4/5 28/13/7 
f 28/13/7 8/4/5 6/3/7 30/15/8 
f 30/15/8 6/3/7 20/9/7 19/10/5 
f 19/10/5 32/16/6 30/15/8 
f 22/11/8 20/9/7 6/3/7 12/5/8 
f 24/12/6 22/11/8 12/5/8 11/6/7 
f 8/4/5 24/12/6 11/6/7 3/2/7 
f 3/2/7 11/6/7 16/8/7 4/1/5 
f 4/1/5 16/8/7 14/7/5 6/3/7 
f 14/7/5 12/5/8 6/3/7 
f 31/16/9 26/14/10 7/4/10 18/10/11 
f 23/12/9 18/10/11 7/4/10 10/6/12 
f 10/6/12 7/4/10 2/2/11 15/8/11 
f 15/8/11 2/2/11 1/1/10 13/7/10 
f 13/7/10 1/1/10 5/3/11 9/5/12 
f 21/11/12 9/5/12 5/3/11 17/9/10 
f 29/15/12 17/9/10 5/3/11 25/13/11 
f 25/13/11 5/3/11 7/4/10 26/14/10 
f 18/10/11 17/9/10 29/15/12 31/16/9 
f 9/5/12 21/11/12 23/12/9 10/6/12 
# 35 polygons - 2 triangles

