# 3ds Max Wavefront OBJ Exporter v0.97b - (c)2007 guruware
# File Created: 25.01.2015 14:30:22

mtllib polc_konyvekkel.mtl

#
# object polc_konyvekkel
#

v  -70.6175 9.0923 46.6889
v  -70.6175 9.0923 10.4639
v  -61.9097 9.0923 10.4639
v  -61.9097 9.0923 46.6889
v  -70.6175 195.6020 46.6889
v  -61.9097 195.6020 46.6889
v  -61.9097 195.6020 10.4639
v  -70.6175 195.6020 10.4639
v  -61.9819 179.0202 9.9141
v  -61.9819 191.9832 9.9141
v  65.6842 191.9832 9.9141
v  65.6842 179.0202 9.9141
v  -61.9819 179.0202 46.8233
v  65.6842 179.0202 46.8233
v  65.6842 191.9832 46.8233
v  -61.9819 191.9832 46.8233
v  -61.9819 126.8213 9.9141
v  -61.9819 139.7843 9.9141
v  65.6842 139.7843 9.9141
v  65.6842 126.8213 9.9141
v  -61.9819 126.8213 46.8233
v  65.6842 126.8213 46.8233
v  65.6842 139.7843 46.8233
v  -61.9819 139.7843 46.8233
v  -61.9819 65.0933 9.9141
v  -61.9819 78.0563 9.9141
v  65.6842 78.0563 9.9141
v  65.6842 65.0933 9.9141
v  -61.9819 65.0933 46.8233
v  65.6842 65.0933 46.8233
v  65.6842 78.0563 46.8233
v  -61.9819 78.0563 46.8233
v  -61.9819 10.7228 9.9141
v  -61.9819 23.6858 9.9141
v  65.6842 23.6858 9.9141
v  65.6842 10.7228 9.9141
v  -61.9819 10.7228 46.8233
v  65.6842 10.7228 46.8233
v  65.6842 23.6858 46.8233
v  -61.9819 23.6858 46.8233
v  65.8776 9.0923 46.6889
v  65.8776 9.0923 10.4639
v  74.5855 9.0923 10.4639
v  74.5855 9.0923 46.6889
v  65.8776 195.6020 46.6889
v  74.5855 195.6020 46.6889
v  74.5855 195.6020 10.4639
v  65.8776 195.6020 10.4639
v  7.7662 140.0001 13.8903
v  7.7662 140.0001 43.8114
v  -26.2222 140.0001 43.8114
v  -26.2222 140.0001 13.8903
v  7.7662 165.8676 43.8114
v  7.7662 165.8676 13.8903
v  -26.2222 165.8676 13.8903
v  -26.2222 165.8676 43.8114
v  64.8035 140.0001 43.8114
v  64.8035 140.0001 13.8903
v  64.8035 157.2126 13.8903
v  64.8035 157.2126 43.8114
v  8.2563 154.5742 13.8903
v  8.2563 140.0001 13.8903
v  -61.0644 140.0001 13.8903
v  -61.0644 140.0001 43.8114
v  -61.0644 157.4275 43.8114
v  -61.0644 157.4275 13.8904
v  30.7925 140.0001 13.8903
v  30.7925 140.0001 43.8114
v  30.1623 140.0001 43.8114
v  30.1623 140.0001 13.8903
v  8.2563 140.0001 43.8114
v  -26.7574 140.0001 13.8903
v  -26.7574 140.0001 43.8114
v  30.7925 157.2126 43.8114
v  30.7925 157.2126 13.8903
v  30.1623 154.5742 13.8903
v  30.1623 154.5742 43.8114
v  8.2563 154.5742 43.8114
v  -26.7574 157.4275 43.8114
v  -26.7574 157.4275 13.8904
v  -6.3632 77.6078 13.8903
v  -6.3632 77.6078 43.8114
v  -34.7512 77.6078 43.8114
v  -34.7512 77.6078 13.8903
v  -6.3632 103.1918 43.8114
v  -6.3632 103.1919 13.8903
v  -34.7512 103.1919 13.8903
v  -34.7512 103.1918 43.8114
v  64.8035 77.6078 43.8114
v  64.8035 77.6078 13.8903
v  64.8035 99.1765 13.8903
v  64.8035 99.1764 43.8114
v  -5.8732 95.4189 13.8903
v  -5.8732 77.6078 13.8903
v  -60.1370 77.6078 13.8903
v  -60.1370 77.6078 43.8114
v  -60.1370 98.3950 43.8114
v  -60.1370 98.3950 13.8904
v  45.5030 77.6078 13.8903
v  45.5030 77.6078 43.8114
v  44.8728 77.6078 43.8114
v  44.8728 77.6078 13.8903
v  -5.8732 77.6078 43.8114
v  -35.2863 77.6078 13.8903
v  -35.2863 77.6078 43.8114
v  45.5030 99.1764 43.8114
v  45.5030 99.1765 13.8903
v  44.8728 95.4189 13.8903
v  44.8728 95.4189 43.8114
v  -5.8732 95.4189 43.8114
v  -35.2863 98.3950 43.8114
v  -35.2863 98.3950 13.8904
v  20.5053 23.5533 13.8903
v  20.5053 23.5533 43.8114
v  -28.1937 23.5533 43.8114
v  -28.1937 23.5533 13.8903
v  20.5053 52.6613 43.8114
v  20.5053 52.6613 13.8903
v  -28.1937 52.6613 13.8903
v  -28.1937 52.6613 43.8114
v  62.8320 23.5533 43.8114
v  62.8320 23.5533 13.8903
v  62.8320 48.3586 13.8903
v  62.8320 48.3586 43.8114
v  20.9953 54.9367 13.8903
v  20.9953 23.5533 13.8903
v  -56.7519 23.5533 13.8903
v  -56.7519 23.5533 43.8114
v  -56.7519 62.4707 43.8114
v  -56.7519 62.4707 13.8903
v  43.5316 23.5533 13.8903
v  43.5316 23.5533 43.8114
v  42.9013 23.5533 43.8114
v  42.9013 23.5533 13.8903
v  20.9953 23.5533 43.8114
v  -28.7288 23.5533 13.8903
v  -28.7288 23.5533 43.8114
v  43.5316 48.3586 43.8114
v  43.5316 48.3586 13.8903
v  42.9013 54.9367 13.8903
v  42.9013 54.9367 43.8114
v  20.9953 54.9367 43.8114
v  -28.7288 62.4707 43.8114
v  -28.7288 62.4707 13.8903
# 144 vertices

vn 0.0000 -1.0000 -0.0000
vn 0.0000 1.0000 -0.0000
vn 0.0000 0.0000 1.0000
vn 1.0000 0.0000 -0.0000
vn 0.0000 0.0000 -1.0000
vn -1.0000 0.0000 -0.0000
vn 0.0000 1.0000 0.0000
vn 0.6916 0.7223 0.0000
vn -0.6844 0.7291 0.0000
vn 0.0000 -0.0000 1.0000
vn -0.0000 0.0000 -1.0000
vn -0.6195 0.7850 0.0000
vn -0.0000 -0.0000 1.0000
vn 0.6845 0.7290 0.0000
vn -0.6668 0.7453 0.0000
vn -0.6460 0.7634 0.0000
vn -0.0000 1.0000 0.0000
vn -0.6283 0.7780 0.0000
vn 0.6876 0.7261 0.0000
vn 0.6725 0.7401 0.0000
# 20 vertex normals

vt 1.0000 0.0000 0.0000
vt 1.0000 1.0000 0.0000
vt 0.0000 1.0000 0.0000
vt 0.0000 0.0000 0.0000
vt 0.5000 1.0000 0.0000
vt 0.5000 0.0000 0.0000
vt 0.6667 0.0000 0.0000
vt 0.6667 1.0000 0.0000
vt 0.3333 1.0000 0.0000
vt 0.3333 0.0000 0.0000
vt 0.0833 1.0000 0.0000
vt 0.0833 0.0000 0.0000
vt 0.1667 0.0000 0.0000
vt 0.1667 1.0000 0.0000
vt 0.8333 1.0000 0.0000
vt 0.8333 0.0000 0.0000
vt 0.9167 0.0000 0.0000
vt 0.9167 1.0000 0.0000
# 18 texture coords

g polc_konyvekkel
usemtl wire_135059008
s off
f 1/1/1 2/2/1 3/3/1 4/4/1 
f 5/4/2 6/1/2 7/2/2 8/3/2 
f 1/4/3 4/1/3 6/2/3 5/3/3 
f 4/4/4 3/1/4 7/2/4 6/3/4 
f 3/4/5 2/1/5 8/2/5 7/3/5 
f 2/4/6 1/1/6 5/2/6 8/3/6 
f 9/1/5 10/2/5 11/3/5 12/4/5 
f 13/4/3 14/1/3 15/2/3 16/3/3 
f 9/4/1 12/1/1 14/2/1 13/3/1 
f 12/4/4 11/1/4 15/2/4 14/3/4 
f 11/4/7 10/1/7 16/2/7 15/3/7 
f 10/4/6 9/1/6 13/2/6 16/3/6 
f 17/1/5 18/2/5 19/3/5 20/4/5 
f 21/4/3 22/1/3 23/2/3 24/3/3 
f 17/4/1 20/1/1 22/2/1 21/3/1 
f 20/4/4 19/1/4 23/2/4 22/3/4 
f 19/4/7 18/1/7 24/2/7 23/3/7 
f 18/4/6 17/1/6 21/2/6 24/3/6 
f 25/1/5 26/2/5 27/3/5 28/4/5 
f 29/4/3 30/1/3 31/2/3 32/3/3 
f 25/4/1 28/1/1 30/2/1 29/3/1 
f 28/4/4 27/1/4 31/2/4 30/3/4 
f 27/4/7 26/1/7 32/2/7 31/3/7 
f 26/4/6 25/1/6 29/2/6 32/3/6 
f 33/1/5 34/2/5 35/3/5 36/4/5 
f 37/4/3 38/1/3 39/2/3 40/3/3 
f 33/4/1 36/1/1 38/2/1 37/3/1 
f 36/4/4 35/1/4 39/2/4 38/3/4 
f 35/4/7 34/1/7 40/2/7 39/3/7 
f 34/4/6 33/1/6 37/2/6 40/3/6 
f 41/1/1 42/2/1 43/3/1 44/4/1 
f 45/4/2 46/1/2 47/2/2 48/3/2 
f 41/4/3 44/1/3 46/2/3 45/3/3 
f 44/4/4 43/1/4 47/2/4 46/3/4 
f 43/4/5 42/1/5 48/2/5 47/3/5 
f 42/4/6 41/1/6 45/2/6 48/3/6 
f 49/5/1 50/6/1 51/7/1 52/8/1 
f 53/6/8 54/5/8 55/9/9 56/10/9 
f 50/6/10 53/5/10 56/9/10 51/10/10 
f 57/4/4 58/1/4 59/2/4 60/3/4 
f 49/6/11 54/5/11 61/9/11 62/10/5 
f 63/4/6 64/1/6 65/2/6 66/3/6 
f 67/11/1 68/12/1 69/13/1 70/14/1 
f 70/14/1 69/13/1 71/10/1 62/9/1 
f 62/9/1 71/10/1 50/6/1 49/5/1 
f 64/1/1 63/2/1 72/15/1 73/16/1 
f 73/16/1 72/15/1 52/8/1 51/7/1 
f 74/17/12 75/18/12 76/15/12 77/16/12 
f 77/16/12 76/15/12 61/8/8 78/7/8 
f 78/7/8 61/8/8 54/5/8 53/6/8 
f 66/3/7 65/4/7 79/13/9 80/14/9 
f 80/14/9 79/13/9 56/10/9 55/9/9 
f 68/17/13 74/18/13 77/15/13 69/16/10 
f 69/16/10 77/15/13 78/8/10 71/7/10 
f 71/7/10 78/8/10 53/5/10 50/6/10 
f 65/3/10 64/4/10 73/13/10 79/14/10 
f 79/14/10 73/13/10 51/10/10 56/9/10 
f 63/1/11 66/2/11 80/15/11 72/16/11 
f 72/16/11 80/15/11 55/8/11 52/7/5 
f 52/7/5 55/8/11 54/5/11 49/6/11 
f 75/11/5 67/12/5 70/13/5 76/14/5 
f 76/14/5 70/13/5 62/10/5 61/9/11 
f 58/3/1 57/4/1 68/12/1 67/11/1 
f 60/1/7 59/2/7 75/18/12 74/17/12 
f 57/1/10 60/2/10 74/18/13 68/17/13 
f 59/3/5 58/4/5 67/12/5 75/11/5 
f 81/5/1 82/6/1 83/7/1 84/8/1 
f 85/6/14 86/5/14 87/9/15 88/10/15 
f 82/6/10 85/5/10 88/9/10 83/10/10 
f 89/4/4 90/1/4 91/2/4 92/3/4 
f 81/6/11 86/5/11 93/9/11 94/10/5 
f 95/4/6 96/1/6 97/2/6 98/3/6 
f 99/11/1 100/12/1 101/13/1 102/14/1 
f 102/14/1 101/13/1 103/10/1 94/9/1 
f 94/9/1 103/10/1 82/6/1 81/5/1 
f 96/1/1 95/2/1 104/15/1 105/16/1 
f 105/16/1 104/15/1 84/8/1 83/7/1 
f 106/17/16 107/18/16 108/15/16 109/16/16 
f 109/16/16 108/15/16 93/8/14 110/7/14 
f 110/7/14 93/8/14 86/5/14 85/6/14 
f 98/3/7 97/4/7 111/13/15 112/14/15 
f 112/14/15 111/13/15 88/10/15 87/9/15 
f 100/17/10 106/18/10 109/15/10 101/16/13 
f 101/16/13 109/15/10 110/8/10 103/7/10 
f 103/7/10 110/8/10 85/5/10 82/6/10 
f 97/3/10 96/4/10 105/13/10 111/14/10 
f 111/14/10 105/13/10 83/10/10 88/9/10 
f 95/1/11 98/2/11 112/15/11 104/16/11 
f 104/16/11 112/15/11 87/8/11 84/7/5 
f 84/7/5 87/8/11 86/5/11 81/6/11 
f 107/11/11 99/12/5 102/13/11 108/14/11 
f 108/14/11 102/13/11 94/10/5 93/9/11 
f 90/3/1 89/4/1 100/12/1 99/11/1 
f 92/1/17 91/2/17 107/18/16 106/17/16 
f 89/1/10 92/2/10 106/18/10 100/17/10 
f 91/3/5 90/4/5 99/12/5 107/11/11 
f 113/5/1 114/6/1 115/7/1 116/8/1 
f 117/6/18 118/5/18 119/9/19 120/10/19 
f 114/6/10 117/5/10 120/9/13 115/10/13 
f 121/4/4 122/1/4 123/2/4 124/3/4 
f 113/6/11 118/5/11 125/9/11 126/10/5 
f 127/4/6 128/1/6 129/2/6 130/3/6 
f 131/11/1 132/12/1 133/13/1 134/14/1 
f 134/14/1 133/13/1 135/10/1 126/9/1 
f 126/9/1 135/10/1 114/6/1 113/5/1 
f 128/1/1 127/2/1 136/15/1 137/16/1 
f 137/16/1 136/15/1 116/8/1 115/7/1 
f 138/17/20 139/18/20 140/15/20 141/16/20 
f 141/16/20 140/15/20 125/8/18 142/7/18 
f 142/7/18 125/8/18 118/5/18 117/6/18 
f 130/3/7 129/4/7 143/13/19 144/14/19 
f 144/14/19 143/13/19 120/10/19 119/9/19 
f 132/17/13 138/18/13 141/15/13 133/16/10 
f 133/16/10 141/15/13 142/8/10 135/7/10 
f 135/7/10 142/8/10 117/5/10 114/6/10 
f 129/3/10 128/4/10 137/13/10 143/14/13 
f 143/14/13 137/13/10 115/10/13 120/9/13 
f 127/1/5 130/2/5 144/15/5 136/16/5 
f 136/16/5 144/15/5 119/8/5 116/7/5 
f 116/7/5 119/8/5 118/5/11 113/6/11 
f 139/11/5 131/12/5 134/13/5 140/14/5 
f 140/14/5 134/13/5 126/10/5 125/9/11 
f 122/3/1 121/4/1 132/12/1 131/11/1 
f 124/1/7 123/2/7 139/18/20 138/17/20 
f 121/1/10 124/2/10 138/18/13 132/17/13 
f 123/3/5 122/4/5 131/12/5 139/11/5 
# 126 polygons

