# 3ds Max Wavefront OBJ Exporter v0.97b - (c)2007 guruware
# File Created: 25.01.2015 14:33:12

mtllib sepru_v02.mtl

#
# object sepru
#

v  -12.8569 -6.2833 -1.9082
v  -10.4261 -6.2833 -1.9082
v  -10.4261 -6.2833 1.2180
v  -12.8569 -6.2833 1.2180
v  -12.8569 7.7381 -1.9082
v  -12.8569 7.7381 1.2180
v  -10.4261 7.7381 1.2180
v  -10.4261 7.7381 -1.9082
v  -9.6096 -6.2833 0.5093
v  -9.6096 -6.2833 -1.9215
v  -6.4833 -6.2833 -1.9215
v  -6.4833 -6.2833 0.5093
v  -9.6096 7.7381 0.5093
v  -6.4833 7.7381 0.5093
v  -6.4833 7.7381 -1.9215
v  -9.6096 7.7381 -1.9215
v  -6.0337 -6.2833 2.0500
v  -6.0337 -6.2833 -0.3807
v  -2.9074 -6.2833 -0.3807
v  -2.9074 -6.2833 2.0500
v  -6.0337 7.7381 2.0500
v  -2.9074 7.7381 2.0500
v  -2.9074 7.7381 -0.3807
v  -6.0337 7.7381 -0.3807
v  -2.4578 -6.2833 2.0500
v  -2.4578 -6.2833 -0.3807
v  0.6685 -6.2833 -0.3807
v  0.6685 -6.2833 2.0500
v  -2.4578 7.7381 2.0500
v  0.6685 7.7381 2.0500
v  0.6685 7.7381 -0.3807
v  -2.4578 7.7381 -0.3807
v  1.1181 -6.2833 0.5093
v  1.1181 -6.2833 -1.9215
v  4.2443 -6.2833 -1.9215
v  4.2443 -6.2833 0.5093
v  1.1181 7.7381 0.5093
v  4.2443 7.7381 0.5093
v  4.2443 7.7381 -1.9215
v  1.1181 7.7381 -1.9215
v  7.3863 -6.2833 1.6494
v  4.9555 -6.2833 1.6494
v  4.9555 -6.2833 -1.4769
v  7.3863 -6.2833 -1.4769
v  7.3863 7.7381 1.6494
v  7.3863 7.7381 -1.4769
v  4.9555 7.7381 -1.4769
v  4.9555 7.7381 1.6494
v  7.3863 -6.2833 -5.0367
v  4.9555 -6.2833 -5.0367
v  4.9555 -6.2833 -8.1630
v  7.3863 -6.2833 -8.1630
v  7.3863 7.7381 -5.0367
v  7.3863 7.7381 -8.1630
v  4.9555 7.7381 -8.1630
v  4.9555 7.7381 -5.0367
v  4.2443 -6.2833 -6.9930
v  4.2443 -6.2833 -4.5623
v  1.1180 -6.2833 -4.5623
v  1.1180 -6.2833 -6.9930
v  4.2443 7.7381 -6.9930
v  1.1180 7.7381 -6.9930
v  1.1180 7.7381 -4.5623
v  4.2443 7.7381 -4.5623
v  0.6685 -6.2833 -8.5338
v  0.6685 -6.2833 -6.1031
v  -2.4578 -6.2833 -6.1031
v  -2.4578 -6.2833 -8.5338
v  0.6685 7.7381 -8.5338
v  -2.4578 7.7381 -8.5338
v  -2.4578 7.7381 -6.1031
v  0.6685 7.7381 -6.1031
v  -2.9074 -6.2833 -8.5338
v  -2.9074 -6.2833 -6.1031
v  -6.0337 -6.2833 -6.1031
v  -6.0337 -6.2833 -8.5338
v  -2.9074 7.7381 -8.5338
v  -6.0337 7.7381 -8.5338
v  -6.0337 7.7381 -6.1031
v  -2.9074 7.7381 -6.1031
v  -6.4833 -6.2833 -6.9930
v  -6.4833 -6.2833 -4.5623
v  -9.6096 -6.2833 -4.5623
v  -9.6096 -6.2833 -6.9930
v  -6.4833 7.7381 -6.9930
v  -9.6096 7.7381 -6.9930
v  -9.6096 7.7381 -4.5623
v  -6.4833 7.7381 -4.5623
v  -12.8569 -6.2833 -8.5943
v  -10.4261 -6.2833 -8.5943
v  -10.4261 -6.2833 -5.4681
v  -12.8569 -6.2833 -5.4681
v  -12.8569 7.7381 -8.5943
v  -12.8569 7.7381 -5.4681
v  -10.4261 7.7381 -5.4681
v  -10.4261 7.7381 -8.5943
v  -5.5585 9.6626 -0.1714
v  -5.5585 9.6626 -6.5643
v  0.2304 9.6626 -6.5643
v  0.2304 9.6626 -0.1714
v  -5.5585 117.6297 -0.1714
v  0.2304 117.6297 -0.1714
v  0.2304 117.6297 -6.5643
v  -5.5585 117.6297 -6.5643
v  -16.0486 -6.2833 -3.2759
v  -13.6179 -6.2833 -3.2759
v  -13.6179 -6.2833 -0.1496
v  -16.0486 -6.2833 -0.1496
v  -16.0486 7.7381 -3.2759
v  -16.0486 7.7381 -0.1496
v  -13.6179 7.7381 -0.1496
v  -13.6179 7.7381 -3.2759
v  -16.0486 -6.2833 -6.8518
v  -13.6179 -6.2833 -6.8518
v  -13.6179 -6.2833 -3.7255
v  -16.0486 -6.2833 -3.7255
v  -16.0486 7.7381 -6.8518
v  -16.0486 7.7381 -3.7255
v  -13.6179 7.7381 -3.7255
v  -13.6179 7.7381 -6.8518
v  10.5567 -6.2833 0.2817
v  8.1260 -6.2833 0.2817
v  8.1260 -6.2833 -2.8445
v  10.5567 -6.2833 -2.8445
v  10.5567 7.7381 0.2817
v  10.5567 7.7381 -2.8445
v  8.1260 7.7381 -2.8445
v  8.1260 7.7381 0.2817
v  10.5567 -6.2833 -3.2941
v  8.1260 -6.2833 -3.2941
v  8.1260 -6.2833 -6.4204
v  10.5567 -6.2833 -6.4204
v  10.5567 7.7381 -3.2941
v  10.5567 7.7381 -6.4204
v  8.1260 7.7381 -6.4204
v  8.1260 7.7381 -3.2941
v  13.6977 -6.2833 1.6494
v  11.2669 -6.2833 1.6494
v  11.2669 -6.2833 -1.4769
v  13.6977 -6.2833 -1.4769
v  13.6977 7.7381 1.6494
v  13.6977 7.7381 -1.4769
v  11.2669 7.7381 -1.4769
v  11.2669 7.7381 1.6494
v  13.6977 -6.2833 -5.0367
v  11.2669 -6.2833 -5.0367
v  11.2669 -6.2833 -8.1630
v  13.6977 -6.2833 -8.1630
v  13.6977 7.7381 -5.0367
v  13.6977 7.7381 -8.1630
v  11.2669 7.7381 -8.1630
v  11.2669 7.7381 -5.0367
v  16.8681 -6.2833 0.2817
v  14.4374 -6.2833 0.2817
v  14.4374 -6.2833 -2.8445
v  16.8681 -6.2833 -2.8445
v  16.8681 7.7381 0.2817
v  16.8681 7.7381 -2.8445
v  14.4374 7.7381 -2.8445
v  14.4374 7.7381 0.2817
v  16.8681 -6.2833 -3.2941
v  14.4374 -6.2833 -3.2941
v  14.4374 -6.2833 -6.4204
v  16.8681 -6.2833 -6.4204
v  16.8681 7.7381 -3.2941
v  16.8681 7.7381 -6.4204
v  14.4374 7.7381 -6.4204
v  14.4374 7.7381 -3.2941
v  -19.2444 -6.2833 -1.9082
v  -16.8137 -6.2833 -1.9082
v  -16.8137 -6.2833 1.2180
v  -19.2444 -6.2833 1.2180
v  -19.2444 7.7381 -1.9082
v  -19.2444 7.7381 1.2180
v  -16.8137 7.7381 1.2180
v  -16.8137 7.7381 -1.9082
v  -19.2444 -6.2833 -8.5943
v  -16.8137 -6.2833 -8.5943
v  -16.8137 -6.2833 -5.4681
v  -19.2444 -6.2833 -5.4681
v  -19.2444 7.7381 -8.5943
v  -19.2444 7.7381 -5.4681
v  -16.8137 7.7381 -5.4681
v  -16.8137 7.7381 -8.5943
v  -22.4361 -6.2833 -3.2759
v  -20.0054 -6.2833 -3.2759
v  -20.0054 -6.2833 -0.1496
v  -22.4361 -6.2833 -0.1496
v  -22.4361 7.7381 -3.2759
v  -22.4361 7.7381 -0.1496
v  -20.0054 7.7381 -0.1496
v  -20.0054 7.7381 -3.2759
v  -22.4361 -6.2833 -6.8518
v  -20.0054 -6.2833 -6.8518
v  -20.0054 -6.2833 -3.7255
v  -22.4361 -6.2833 -3.7255
v  -22.4361 7.7381 -6.8518
v  -22.4361 7.7381 -3.7255
v  -20.0054 7.7381 -3.7255
v  -20.0054 7.7381 -6.8518
v  -24.0158 6.7986 2.0533
v  -24.0158 6.7986 -8.7890
v  18.6877 6.7986 -8.7890
v  18.6878 6.7986 2.0533
v  -24.0158 18.9130 2.0533
v  18.6878 18.9130 2.0533
v  18.6877 18.9130 -8.7890
v  -24.0158 18.9130 -8.7890
# 208 vertices

vn 0.0000 -1.0000 -0.0000
vn 0.0000 1.0000 -0.0000
vn -1.0000 0.0000 -0.0000
vn -0.0000 -0.0000 1.0000
vn 1.0000 0.0000 -0.0000
vn 0.0000 0.0000 -1.0000
vn -1.0000 -0.0000 0.0000
vn -0.0000 0.0000 1.0000
vn 1.0000 0.0000 0.0000
vn -1.0000 0.0000 0.0000
vn 1.0000 -0.0000 0.0000
vn 0.0000 0.0000 1.0000
vn -0.0000 0.0000 -1.0000
vn 0.0000 -0.0000 -1.0000
# 14 vertex normals

vt 1.0000 0.0000 0.0000
vt 1.0000 1.0000 0.0000
vt 0.0000 1.0000 0.0000
vt 0.0000 0.0000 0.0000
# 4 texture coords

g sepru
usemtl helyrehozok
s off
f 1/1/1 2/2/1 3/3/1 4/4/1 
f 5/4/2 6/1/2 7/2/2 8/3/2 
f 1/4/3 4/1/3 6/2/3 5/3/3 
f 4/4/4 3/1/4 7/2/4 6/3/4 
f 3/4/5 2/1/5 8/2/5 7/3/5 
f 2/4/6 1/1/6 5/2/6 8/3/6 
f 9/1/1 10/2/1 11/3/1 12/4/1 
f 13/4/2 14/1/2 15/2/2 16/3/2 
f 9/4/4 12/1/4 14/2/4 13/3/4 
f 12/4/5 11/1/5 15/2/5 14/3/5 
f 11/4/6 10/1/6 16/2/6 15/3/6 
f 10/4/7 9/1/7 13/2/7 16/3/7 
f 17/1/1 18/2/1 19/3/1 20/4/1 
f 21/4/2 22/1/2 23/2/2 24/3/2 
f 17/4/8 20/1/8 22/2/8 21/3/8 
f 20/4/9 19/1/9 23/2/9 22/3/9 
f 19/4/6 18/1/6 24/2/6 23/3/6 
f 18/4/3 17/1/3 21/2/3 24/3/3 
f 25/1/1 26/2/1 27/3/1 28/4/1 
f 29/4/2 30/1/2 31/2/2 32/3/2 
f 25/4/8 28/1/8 30/2/8 29/3/8 
f 28/4/5 27/1/5 31/2/5 30/3/5 
f 27/4/6 26/1/6 32/2/6 31/3/6 
f 26/4/3 25/1/3 29/2/3 32/3/3 
f 33/1/1 34/2/1 35/3/1 36/4/1 
f 37/4/2 38/1/2 39/2/2 40/3/2 
f 33/4/8 36/1/8 38/2/8 37/3/8 
f 36/4/5 35/1/5 39/2/5 38/3/5 
f 35/4/6 34/1/6 40/2/6 39/3/6 
f 34/4/3 33/1/3 37/2/3 40/3/3 
f 41/1/1 42/2/1 43/3/1 44/4/1 
f 45/4/2 46/1/2 47/2/2 48/3/2 
f 41/4/5 44/1/5 46/2/5 45/3/5 
f 44/4/6 43/1/6 47/2/6 46/3/6 
f 43/4/3 42/1/3 48/2/3 47/3/3 
f 42/4/8 41/1/8 45/2/8 48/3/8 
f 49/1/1 50/2/1 51/3/1 52/4/1 
f 53/4/2 54/1/2 55/2/2 56/3/2 
f 49/4/5 52/1/5 54/2/5 53/3/5 
f 52/4/6 51/1/6 55/2/6 54/3/6 
f 51/4/3 50/1/3 56/2/3 55/3/3 
f 50/4/8 49/1/8 53/2/8 56/3/8 
f 57/1/1 58/2/1 59/3/1 60/4/1 
f 61/4/2 62/1/2 63/2/2 64/3/2 
f 57/4/6 60/1/6 62/2/6 61/3/6 
f 60/4/3 59/1/3 63/2/3 62/3/3 
f 59/4/8 58/1/8 64/2/8 63/3/8 
f 58/4/5 57/1/5 61/2/5 64/3/5 
f 65/1/1 66/2/1 67/3/1 68/4/1 
f 69/4/2 70/1/2 71/2/2 72/3/2 
f 65/4/6 68/1/6 70/2/6 69/3/6 
f 68/4/3 67/1/3 71/2/3 70/3/3 
f 67/4/8 66/1/8 72/2/8 71/3/8 
f 66/4/5 65/1/5 69/2/5 72/3/5 
f 73/1/1 74/2/1 75/3/1 76/4/1 
f 77/4/2 78/1/2 79/2/2 80/3/2 
f 73/4/6 76/1/6 78/2/6 77/3/6 
f 76/4/3 75/1/3 79/2/3 78/3/3 
f 75/4/8 74/1/8 80/2/8 79/3/8 
f 74/4/5 73/1/5 77/2/5 80/3/5 
f 81/1/1 82/2/1 83/3/1 84/4/1 
f 85/4/2 86/1/2 87/2/2 88/3/2 
f 81/4/6 84/1/6 86/2/6 85/3/6 
f 84/4/10 83/1/10 87/2/10 86/3/10 
f 83/4/8 82/1/8 88/2/8 87/3/8 
f 82/4/5 81/1/5 85/2/5 88/3/5 
f 89/1/1 90/2/1 91/3/1 92/4/1 
f 93/4/2 94/1/2 95/2/2 96/3/2 
f 89/4/3 92/1/3 94/2/3 93/3/3 
f 92/4/8 91/1/8 95/2/8 94/3/8 
f 91/4/9 90/1/9 96/2/9 95/3/9 
f 90/4/6 89/1/6 93/2/6 96/3/6 
f 97/1/1 98/2/1 99/3/1 100/4/1 
f 101/4/2 102/1/2 103/2/2 104/3/2 
f 97/4/4 100/1/4 102/2/4 101/3/4 
f 100/4/5 99/1/5 103/2/5 102/3/5 
f 99/4/6 98/1/6 104/2/6 103/3/6 
f 98/4/3 97/1/3 101/2/3 104/3/3 
f 105/1/1 106/2/1 107/3/1 108/4/1 
f 109/4/2 110/1/2 111/2/2 112/3/2 
f 105/4/3 108/1/3 110/2/3 109/3/3 
f 108/4/4 107/1/4 111/2/4 110/3/4 
f 107/4/11 106/1/11 112/2/11 111/3/11 
f 106/4/6 105/1/6 109/2/6 112/3/6 
f 113/1/1 114/2/1 115/3/1 116/4/1 
f 117/4/2 118/1/2 119/2/2 120/3/2 
f 113/4/3 116/1/3 118/2/3 117/3/3 
f 116/4/8 115/1/8 119/2/8 118/3/8 
f 115/4/9 114/1/9 120/2/9 119/3/9 
f 114/4/6 113/1/6 117/2/6 120/3/6 
f 121/1/1 122/2/1 123/3/1 124/4/1 
f 125/4/2 126/1/2 127/2/2 128/3/2 
f 121/4/5 124/1/5 126/2/5 125/3/5 
f 124/4/6 123/1/6 127/2/6 126/3/6 
f 123/4/3 122/1/3 128/2/3 127/3/3 
f 122/4/8 121/1/8 125/2/8 128/3/8 
f 129/1/1 130/2/1 131/3/1 132/4/1 
f 133/4/2 134/1/2 135/2/2 136/3/2 
f 129/4/5 132/1/5 134/2/5 133/3/5 
f 132/4/6 131/1/6 135/2/6 134/3/6 
f 131/4/3 130/1/3 136/2/3 135/3/3 
f 130/4/4 129/1/4 133/2/4 136/3/4 
f 137/1/1 138/2/1 139/3/1 140/4/1 
f 141/4/2 142/1/2 143/2/2 144/3/2 
f 137/4/5 140/1/5 142/2/5 141/3/5 
f 140/4/6 139/1/6 143/2/6 142/3/6 
f 139/4/3 138/1/3 144/2/3 143/3/3 
f 138/4/8 137/1/8 141/2/8 144/3/8 
f 145/1/1 146/2/1 147/3/1 148/4/1 
f 149/4/2 150/1/2 151/2/2 152/3/2 
f 145/4/5 148/1/5 150/2/5 149/3/5 
f 148/4/6 147/1/6 151/2/6 150/3/6 
f 147/4/3 146/1/3 152/2/3 151/3/3 
f 146/4/12 145/1/12 149/2/12 152/3/12 
f 153/1/1 154/2/1 155/3/1 156/4/1 
f 157/4/2 158/1/2 159/2/2 160/3/2 
f 153/4/5 156/1/5 158/2/5 157/3/5 
f 156/4/6 155/1/6 159/2/6 158/3/6 
f 155/4/3 154/1/3 160/2/3 159/3/3 
f 154/4/4 153/1/4 157/2/4 160/3/4 
f 161/1/1 162/2/1 163/3/1 164/4/1 
f 165/4/2 166/1/2 167/2/2 168/3/2 
f 161/4/5 164/1/5 166/2/5 165/3/5 
f 164/4/13 163/1/13 167/2/13 166/3/13 
f 163/4/3 162/1/3 168/2/3 167/3/3 
f 162/4/4 161/1/4 165/2/4 168/3/4 
f 169/1/1 170/2/1 171/3/1 172/4/1 
f 173/4/2 174/1/2 175/2/2 176/3/2 
f 169/4/3 172/1/3 174/2/3 173/3/3 
f 172/4/8 171/1/8 175/2/8 174/3/8 
f 171/4/11 170/1/11 176/2/11 175/3/11 
f 170/4/14 169/1/14 173/2/14 176/3/14 
f 177/1/1 178/2/1 179/3/1 180/4/1 
f 181/4/2 182/1/2 183/2/2 184/3/2 
f 177/4/3 180/1/3 182/2/3 181/3/3 
f 180/4/4 179/1/4 183/2/4 182/3/4 
f 179/4/9 178/1/9 184/2/9 183/3/9 
f 178/4/6 177/1/6 181/2/6 184/3/6 
f 185/1/1 186/2/1 187/3/1 188/4/1 
f 189/4/2 190/1/2 191/2/2 192/3/2 
f 185/4/3 188/1/3 190/2/3 189/3/3 
f 188/4/8 187/1/8 191/2/8 190/3/8 
f 187/4/5 186/1/5 192/2/5 191/3/5 
f 186/4/14 185/1/14 189/2/14 192/3/14 
f 193/1/1 194/2/1 195/3/1 196/4/1 
f 197/4/2 198/1/2 199/2/2 200/3/2 
f 193/4/3 196/1/3 198/2/3 197/3/3 
f 196/4/8 195/1/8 199/2/8 198/3/8 
f 195/4/9 194/1/9 200/2/9 199/3/9 
f 194/4/6 193/1/6 197/2/6 200/3/6 
f 201/1/1 202/2/1 203/3/1 204/4/1 
f 205/4/2 206/1/2 207/2/2 208/3/2 
f 201/4/8 204/1/8 206/2/8 205/3/8 
f 204/4/5 203/1/5 207/2/5 206/3/5 
f 203/4/6 202/1/6 208/2/6 207/3/6 
f 202/4/3 201/1/3 205/2/3 208/3/3 
# 156 polygons

