# 3ds Max Wavefront OBJ Exporter v0.97b - (c)2007 guruware
# File Created: 25.01.2015 14:35:59

mtllib szemeteskosar.mtl

#
# object szemeteskosar
#

v  11.1221 -0.0000 -6.4562
v  2.1350 -0.0000 -22.0223
v  5.1341 44.6097 -27.2169
v  17.1203 44.6097 -6.4562
v  -15.8392 -0.0000 -22.0223
v  -18.8383 44.6097 -27.2169
v  -24.8263 -0.0000 -6.4562
v  -30.8244 44.6097 -6.4562
v  -15.8392 -0.0000 9.1099
v  -18.8383 44.6097 14.3044
v  2.1350 -0.0000 9.1099
v  5.1341 44.6097 14.3044
v  -6.8521 -0.0000 -6.4562
v  2.7315 44.6097 -23.0554
v  12.3150 44.6097 -6.4562
v  -16.4356 44.6097 -23.0554
v  -26.0192 44.6097 -6.4562
v  -16.4356 44.6097 10.1430
v  2.7315 44.6097 10.1430
v  7.5192 5.0592 -6.4562
v  0.3336 5.0592 -18.9021
v  -6.8521 5.0592 -6.4562
v  -14.0377 5.0592 -18.9021
v  -21.2234 5.0592 -6.4562
v  -14.0377 5.0592 5.9897
v  0.3336 5.0592 5.9897
# 26 vertices

vn 0.9911 -0.1333 0.0000
vn 0.4955 -0.1333 -0.8583
vn -0.4955 -0.1333 -0.8583
vn -0.9911 -0.1333 0.0000
vn -0.4955 -0.1333 0.8583
vn 0.4955 -0.1333 0.8583
vn 0.0000 -1.0000 -0.0000
vn 0.0000 1.0000 -0.0000
vn -0.0000 1.0000 -0.0000
vn -0.0000 1.0000 0.0000
vn 0.0000 1.0000 0.0000
vn -0.8613 0.1044 0.4973
vn 0.0000 0.1044 0.9945
vn 0.8613 0.1044 0.4973
vn 0.8613 0.1044 -0.4973
vn 0.0000 0.1044 -0.9945
vn -0.8613 0.1044 -0.4973
# 17 vertex normals

vt 0.7500 0.0000 0.0000
vt 0.9167 0.0000 0.0000
vt 0.9167 1.0000 0.0000
vt 0.7500 1.0000 0.0000
vt 1.0833 0.0000 0.0000
vt 1.0833 1.0000 0.0000
vt 0.0833 0.0000 0.0000
vt 0.2500 0.0000 0.0000
vt 0.2500 1.0000 0.0000
vt 0.0833 1.0000 0.0000
vt 0.4167 0.0000 0.0000
vt 0.4167 1.0000 0.0000
vt 0.5833 0.0000 0.0000
vt 0.5833 1.0000 0.0000
vt 0.5000 0.5000 0.0000
vt 0.0670 0.7500 0.0000
vt 0.5000 1.0000 0.0000
vt 0.0670 0.2500 0.0000
vt 0.5000 0.0000 0.0000
vt 0.9330 0.2500 0.0000
vt 0.9330 0.7500 0.0000
# 21 texture coords

g szemeteskosar
usemtl fem
s off
f 1/1/1 2/2/2 3/3/2 4/4/1 
f 2/2/2 5/5/3 6/6/3 3/3/2 
f 5/7/3 7/8/4 8/9/4 6/10/3 
f 7/8/4 9/11/5 10/12/5 8/9/4 
f 9/11/5 11/13/6 12/14/6 10/12/5 
f 11/13/6 1/1/1 4/4/1 12/14/6 
f 2/2/7 1/1/7 13/15/7 
f 1/1/7 11/13/7 13/15/7 
f 11/13/7 9/11/7 13/15/7 
f 9/11/7 7/8/7 13/15/7 
f 7/8/7 5/7/7 13/15/7 
f 5/5/7 2/2/7 13/15/7 
f 4/4/8 3/3/8 14/16/8 15/17/8 
f 3/3/8 6/6/8 16/18/8 14/16/8 
f 6/10/8 8/9/8 17/19/8 16/18/8 
f 8/9/8 10/12/8 18/20/8 17/19/8 
f 10/12/8 12/14/8 19/21/8 18/20/8 
f 12/14/8 4/4/8 15/17/8 19/21/8 
f 20/17/8 21/16/8 22/15/8 
f 21/16/8 23/18/8 22/15/8 
f 23/18/9 24/19/9 22/15/9 
f 24/19/10 25/20/10 22/15/10 
f 25/20/11 26/21/11 22/15/11 
f 26/21/11 20/17/11 22/15/11 
f 15/17/12 14/16/12 21/16/12 20/17/12 
f 14/16/13 16/18/13 23/18/13 21/16/13 
f 16/18/14 17/19/14 24/19/14 23/18/14 
f 17/19/15 18/20/15 25/20/15 24/19/15 
f 18/20/16 19/21/16 26/21/16 25/20/16 
f 19/21/17 15/17/17 20/17/17 26/21/17 
# 18 polygons - 12 triangles

