# 3ds Max Wavefront OBJ Exporter v0.97b - (c)2007 guruware
# File Created: 25.01.2015 14:37:24

mtllib telefon.mtl

#
# object telefon
#

v  29.2859 59.4380 79.7117
v  29.2859 59.4380 57.5517
v  47.1815 59.4380 57.5517
v  47.1815 59.4380 79.7117
v  29.2859 65.1029 79.7117
v  47.1815 65.1029 79.7117
v  47.1815 71.8047 57.5517
v  29.2859 71.8047 57.5517
v  28.6837 72.7659 65.6677
v  28.6837 72.7659 59.7800
v  48.0984 72.7659 59.7800
v  48.0984 72.7659 65.6677
v  28.6837 78.8349 65.6677
v  48.0984 78.8349 65.6677
v  48.0984 78.8349 59.7800
v  28.6837 78.8349 59.7800
v  55.1884 72.7659 65.6677
v  55.1884 72.7659 59.7800
v  55.1884 78.8349 59.7800
v  55.1884 78.8349 65.6677
v  21.5937 72.7659 59.7800
v  21.5937 72.7659 65.6677
v  21.5937 78.8349 65.6677
v  21.5937 78.8349 59.7800
v  48.0984 67.3094 65.6677
v  48.0984 67.3094 59.7800
v  55.1884 67.3094 59.7800
v  55.1884 67.3094 65.6677
v  28.6837 67.3094 59.7800
v  28.6837 67.3094 65.6677
v  21.5937 67.3094 65.6677
v  21.5937 67.3094 59.7800
# 32 vertices

vn 0.0000 -1.0000 -0.0000
vn 0.0000 0.9572 0.2895
vn 0.0000 0.0000 1.0000
vn 1.0000 0.0000 -0.0000
vn 0.0000 0.0000 -1.0000
vn -1.0000 0.0000 -0.0000
vn 0.0000 1.0000 -0.0000
# 7 vertex normals

vt 1.0000 0.0000 0.0000
vt 1.0000 1.0000 0.0000
vt 0.0000 1.0000 0.0000
vt 0.0000 0.0000 0.0000
# 4 texture coords

g telefon
usemtl telefon
s off
f 1/1/1 2/2/1 3/3/1 4/4/1 
f 5/4/2 6/1/2 7/2/2 8/3/2 
f 1/4/3 4/1/3 6/2/3 5/3/3 
f 4/4/4 3/1/4 7/2/4 6/3/4 
f 3/4/5 2/1/5 8/2/5 7/3/5 
f 2/4/6 1/1/6 5/2/6 8/3/6 
f 9/1/1 10/2/1 11/3/1 12/4/1 
f 13/4/7 14/1/7 15/2/7 16/3/7 
f 9/4/3 12/1/3 14/2/3 13/3/3 
f 17/4/4 18/1/4 19/2/4 20/3/4 
f 11/4/5 10/1/5 16/2/5 15/3/5 
f 21/4/6 22/1/6 23/2/6 24/3/6 
f 25/4/1 26/3/1 27/1/1 28/4/1 
f 11/4/5 15/3/5 19/2/5 18/1/5 
f 15/2/7 14/1/7 20/3/7 19/2/7 
f 14/2/3 12/1/3 17/4/3 20/3/3 
f 29/2/1 30/1/1 31/1/1 32/4/1 
f 9/4/3 13/3/3 23/2/3 22/1/3 
f 13/4/7 16/3/7 24/3/7 23/2/7 
f 16/2/5 10/1/5 21/4/5 24/3/5 
f 12/4/6 11/3/6 26/3/6 25/4/6 
f 11/4/5 18/1/5 27/1/5 26/3/5 
f 18/1/4 17/4/4 28/4/4 27/1/4 
f 17/4/3 12/1/3 25/4/3 28/4/3 
f 10/2/4 9/1/4 30/1/4 29/2/4 
f 9/4/3 22/1/3 31/1/3 30/1/3 
f 22/1/6 21/4/6 32/4/6 31/1/6 
f 21/4/5 10/1/5 29/2/5 32/4/5 
# 28 polygons

