# 3ds Max Wavefront OBJ Exporter v0.97b - (c)2007 guruware
# File Created: 25.01.2015 14:38:01

mtllib tuz.mtl

#
# object tuz
#

v  6.7062 17.3119 19.1087
v  2.0471 -0.0000 12.4548
v  6.2396 -0.0000 9.5191
v  10.8987 17.3119 16.1730
v  -0.3041 15.3086 9.0968
v  3.8884 15.3086 6.1612
v  1.5848 43.9401 11.7946
v  5.7773 43.9401 8.8589
v  -6.5952 22.5880 0.1123
v  -2.4026 22.5880 -2.8233
v  -11.6708 56.4147 -7.1365
v  -7.4783 56.4148 -10.0721
v  -14.7439 21.1567 -11.5253
v  -10.5514 21.1567 -14.4610
v  -23.5232 32.6588 -24.0634
v  -19.3307 32.6588 -26.9991
v  -16.5945 9.6123 -14.1682
v  -12.4020 9.6123 -17.1038
v  -24.7729 8.7916 -25.8482
v  -20.5804 8.7916 -28.7838
v  -17.9301 -0.0000 -16.0757
v  -13.7376 -0.0000 -19.0114
v  -3.7490 -0.0000 -4.7461
v  -7.9415 -0.0000 -1.8105
v  -9.3995 -0.0000 -3.8927
v  -5.2070 -0.0000 -6.8284
v  0.6250 -0.0000 1.5007
v  -3.5675 -0.0000 4.4363
v  26.3640 18.2170 -5.3066
v  5.6386 -0.0000 -5.3066
v  5.6386 -0.0000 -10.4247
v  26.3640 18.2170 -10.4247
v  10.2487 28.0528 -5.3066
v  10.2487 28.0528 -10.4247
v  13.0155 48.0757 -5.3066
v  13.0155 48.0757 -10.4247
v  -7.7100 39.9963 -5.3066
v  -7.7100 39.9963 -10.4247
v  -17.8971 58.9653 -5.3066
v  -17.8971 58.9653 -10.4247
v  -21.7612 29.8092 -5.3066
v  -21.7612 29.8092 -10.4247
v  -34.7585 29.1066 -5.3066
v  -34.7585 29.1066 -10.4247
v  -27.3816 15.0555 -5.3066
v  -27.3816 15.0555 -10.4247
v  -37.2174 12.5965 -5.3066
v  -37.2174 12.5965 -10.4247
v  -20.0047 -0.0000 -5.3066
v  -20.0047 -0.0000 -10.4247
v  -7.1831 -0.0000 -10.4247
v  -7.1831 -0.0000 -5.3066
v  -11.4570 -0.0000 -5.3066
v  -11.4570 -0.0000 -10.4247
v  1.3647 -0.0000 -10.4247
v  1.3647 -0.0000 -5.3066
v  -8.1230 -0.0000 -10.9929
v  -12.3156 -0.0000 -8.0573
v  -6.4835 -0.0000 0.2718
v  -2.2910 -0.0000 -2.6639
v  -2.9092 -0.0000 -5.3066
v  -2.9092 -0.0000 -10.4247
v  -15.7309 -0.0000 -10.4247
v  -15.7309 -0.0000 -5.3066
v  14.2851 17.3119 -22.5325
v  8.5413 -0.0000 -16.7888
v  4.9222 -0.0000 -20.4078
v  10.6660 17.3119 -26.1516
v  5.6426 15.3086 -13.8901
v  2.0236 15.3086 -17.5092
v  7.9714 43.9401 -16.2189
v  4.3523 43.9401 -19.8379
v  -2.1129 22.5880 -6.1346
v  -5.7320 22.5880 -9.7536
v  -8.3702 56.4147 0.1227
v  -11.9893 56.4148 -3.4963
v  -12.1588 21.1567 3.9113
v  -15.7778 21.1567 0.2922
v  -22.9819 32.6588 14.7344
v  -26.6010 32.6588 11.1154
v  -14.4401 9.6123 6.1926
v  -18.0592 9.6123 2.5736
v  -24.5225 8.7916 16.2750
v  -28.1415 8.7916 12.6559
v  -16.0868 -0.0000 7.8393
v  -19.7058 -0.0000 4.2202
v  -7.3918 -0.0000 -8.0938
v  -3.7727 -0.0000 -4.4748
v  -5.5702 -0.0000 -2.6773
v  -9.1892 -0.0000 -6.2964
v  -1.9995 -0.0000 -13.4861
v  1.6196 -0.0000 -9.8671
v  -12.7841 -0.0000 -2.7015
v  -9.1651 -0.0000 0.9176
v  -1.9753 -0.0000 -6.2722
v  -5.5944 -0.0000 -9.8912
# 96 vertices

vn 0.5193 -0.4248 0.7416
vn -0.0928 0.9868 -0.1325
vn 0.5698 -0.1143 0.8138
vn -0.4770 0.5554 -0.6812
vn 0.5549 0.2531 0.7925
vn -0.5671 0.1502 -0.8099
vn 0.3446 0.7994 0.4921
vn -0.5080 -0.4642 -0.7255
vn -0.0330 0.9983 -0.0471
vn -0.3403 -0.8050 -0.4860
vn 0.0000 -1.0000 -0.0000
vn 0.8192 0.0000 -0.5736
vn -0.8192 -0.0000 0.5736
vn 0.6602 -0.7511 -0.0000
vn 0.6602 -0.7511 0.0000
vn 0.5210 0.8536 0.0000
vn 0.5210 0.8536 -0.0000
vn 0.9906 -0.1369 0.0000
vn 0.9906 -0.1369 -0.0000
vn -0.3632 0.9317 0.0000
vn -0.3632 0.9317 -0.0000
vn 0.8810 0.4731 0.0000
vn -0.9913 0.1314 0.0000
vn -0.9913 0.1314 -0.0000
vn -0.0540 0.9985 0.0000
vn -0.0540 0.9985 -0.0000
vn -0.8854 -0.4648 -0.0000
vn -0.2425 0.9701 0.0000
vn -0.5906 -0.8070 -0.0000
vn 0.0000 0.0000 -1.0000
vn -0.0000 -0.0000 1.0000
vn 0.6401 -0.4248 -0.6401
vn -0.1144 0.9868 0.1144
vn 0.7025 -0.1143 -0.7025
vn -0.5880 0.5554 0.5880
vn 0.6841 0.2531 -0.6841
vn -0.6991 0.1502 0.6991
vn 0.4248 0.7994 -0.4248
vn -0.6263 -0.4642 0.6263
vn -0.0406 0.9983 0.0406
vn -0.4195 -0.8050 0.4195
vn -0.7071 0.0000 -0.7071
vn 0.7071 -0.0000 0.7071
# 43 vertex normals

g tuz
usemtl akadalyozok
s off
f 1//1 2//1 3//1 4//1 
f 5//2 1//2 4//2 6//2 
f 7//3 5//3 6//3 8//3 
f 9//4 7//4 8//4 10//4 
f 11//5 9//5 10//5 12//5 
f 13//6 11//6 12//6 14//6 
f 15//7 13//7 14//7 16//7 
f 17//8 15//8 16//8 18//8 
f 19//9 17//9 18//9 20//9 
f 21//10 19//10 20//10 22//10 
f 23//11 24//11 25//11 26//11 
f 3//12 27//12 6//12 4//12 
f 1//13 5//13 28//13 2//13 
f 29//14 30//15 31//15 32//14 
f 33//16 29//16 32//16 34//17 
f 35//18 33//19 34//18 36//18 
f 37//20 35//21 36//21 38//20 
f 39//22 37//22 38//22 40//22 
f 41//23 39//24 40//24 42//23 
f 43//25 41//25 42//25 44//26 
f 45//27 43//27 44//27 46//27 
f 47//28 45//28 46//28 48//28 
f 49//29 47//29 48//29 50//29 
f 51//11 52//11 53//11 54//11 
f 31//30 55//30 34//30 32//30 
f 30//31 29//31 33//31 56//31 
f 3//11 2//11 28//11 27//11 
f 57//11 58//11 21//11 22//11 
f 17//13 19//13 21//13 58//13 
f 5//13 7//13 9//13 59//13 
f 5//13 59//13 28//13 
f 27//11 28//11 59//11 60//11 
f 58//11 57//11 26//11 25//11 
f 17//13 58//13 25//13 15//13 
f 13//13 15//13 25//13 
f 9//13 11//13 24//13 59//13 
f 60//11 59//11 24//11 23//11 
f 13//13 25//13 24//13 11//13 
f 10//12 8//12 6//12 60//12 
f 27//12 60//12 6//12 
f 22//12 20//12 18//12 57//12 
f 18//12 16//12 14//12 57//12 
f 26//12 57//12 14//12 
f 23//12 12//12 10//12 60//12 
f 23//12 26//12 14//12 12//12 
f 31//11 30//11 56//11 55//11 
f 55//11 56//11 61//11 62//11 
f 62//11 61//11 52//11 51//11 
f 49//11 50//11 63//11 64//11 
f 64//11 63//11 54//11 53//11 
f 33//31 35//31 37//31 61//31 
f 33//31 61//31 56//31 
f 45//31 47//31 49//31 64//31 
f 41//31 43//31 45//31 53//31 
f 45//31 64//31 53//31 
f 37//31 39//31 52//31 61//31 
f 41//31 53//31 52//31 39//31 
f 50//30 48//30 46//30 63//30 
f 38//30 36//30 34//30 62//30 
f 55//30 62//30 34//30 
f 51//30 40//30 38//30 62//30 
f 46//30 44//30 42//30 63//30 
f 54//30 63//30 42//30 
f 51//30 54//30 42//30 40//30 
f 65//32 66//32 67//32 68//32 
f 69//33 65//33 68//33 70//33 
f 71//34 69//34 70//34 72//34 
f 73//35 71//35 72//35 74//35 
f 75//36 73//36 74//36 76//36 
f 77//37 75//37 76//37 78//37 
f 79//38 77//38 78//38 80//38 
f 81//39 79//39 80//39 82//39 
f 83//40 81//40 82//40 84//40 
f 85//41 83//41 84//41 86//41 
f 87//11 88//11 89//11 90//11 
f 67//42 91//42 70//42 68//42 
f 65//43 69//43 92//43 66//43 
f 67//11 66//11 92//11 91//11 
f 93//11 94//11 85//11 86//11 
f 81//43 83//43 85//43 94//43 
f 69//43 71//43 73//43 95//43 
f 69//43 95//43 92//43 
f 91//11 92//11 95//11 96//11 
f 94//11 93//11 90//11 89//11 
f 81//43 94//43 89//43 79//43 
f 77//43 79//43 89//43 
f 73//43 75//43 88//43 95//43 
f 96//11 95//11 88//11 87//11 
f 77//43 89//43 88//43 75//43 
f 74//42 72//42 70//42 96//42 
f 91//42 96//42 70//42 
f 86//42 84//42 82//42 93//42 
f 82//42 80//42 78//42 93//42 
f 90//42 93//42 78//42 
f 87//42 76//42 74//42 96//42 
f 87//42 90//42 78//42 76//42 
# 84 polygons - 12 triangles

