# 3ds Max Wavefront OBJ Exporter v0.97b - (c)2007 guruware
# File Created: 25.01.2015 14:40:04

mtllib wccsesze.mtl

#
# object wccsesze
#

v  17.9280 0.0000 -32.2558
v  17.9280 10.3191 -32.2558
v  26.9931 10.3191 7.1357
v  26.9931 0.0000 7.1357
v  -3.9570 0.0000 -32.2558
v  -3.9570 10.3191 -32.2558
v  -25.8420 0.0000 -32.2558
v  -25.8420 10.3191 -32.2558
v  -34.9071 0.0000 7.1357
v  -34.9071 10.3191 7.1357
v  -25.8420 0.0000 35.7251
v  -25.8420 10.3191 35.7251
v  -3.9570 0.0000 47.5672
v  -3.9570 10.3191 47.5672
v  17.9280 0.0000 35.7251
v  17.9280 10.3191 35.7251
v  33.6225 73.8297 16.2236
v  22.6157 73.8297 -32.2558
v  17.3627 73.8297 -11.6273
v  26.1937 73.8297 16.2236
v  -3.9570 73.8297 -32.2558
v  -3.9570 73.8297 -23.1635
v  -30.5297 73.8297 -32.2558
v  -25.2767 73.8297 -11.6273
v  -41.5365 73.8297 16.2236
v  -34.1077 73.8297 16.2236
v  -30.5297 73.8297 50.9368
v  -25.2767 73.8297 44.0745
v  -3.9570 73.8297 65.3154
v  -3.9570 73.8297 55.6108
v  22.6157 73.8297 50.9368
v  17.3627 73.8297 44.0745
v  22.1257 0.0000 7.1357
v  14.4863 0.0000 -16.9575
v  14.4863 0.0000 31.2289
v  -3.9570 0.0000 41.2087
v  -22.4003 0.0000 31.2289
v  -30.0397 0.0000 7.1357
v  -22.4003 0.0000 -16.9575
v  -3.9570 0.0000 -26.9373
v  -3.9570 0.0000 7.1357
v  17.3627 49.0033 -11.6273
v  26.1937 49.0033 16.2236
v  -3.9570 49.0033 -23.1635
v  -25.2767 49.0033 -11.6273
v  -34.1077 49.0033 16.2236
v  -25.2767 49.0033 44.0745
v  -3.9570 49.0033 55.6108
v  17.3627 49.0033 44.0745
v  33.6225 38.4398 16.2236
v  22.6157 38.4398 -32.2558
v  -3.9570 38.4398 -32.2558
v  -30.5297 38.4398 -32.2558
v  -41.5365 38.4398 16.2236
v  -30.5297 38.4398 50.9368
v  -3.9570 38.4398 65.3154
v  22.6157 38.4398 50.9368
v  33.6225 30.9501 16.2236
v  22.6157 30.9501 -32.2558
v  -3.9570 30.9501 -32.2558
v  -30.5297 30.9501 -32.2558
v  -41.5365 30.9501 16.2236
v  -30.5297 30.9501 50.9368
v  -3.9570 30.9501 65.3154
v  22.6157 30.9501 50.9368
v  17.4453 26.5737 -32.2558
v  26.9134 26.5737 16.2236
v  21.4675 14.6954 7.1357
v  13.6697 14.6954 -32.2558
v  -3.9570 26.5737 -32.2558
v  -3.9570 14.6954 -32.2558
v  -25.3593 26.5737 -32.2558
v  -21.5837 14.6954 -32.2558
v  -34.8274 26.5737 16.2234
v  -29.3815 14.6954 7.1359
v  -25.3595 26.5737 46.6611
v  -21.5835 14.6954 32.2041
v  -3.9570 26.5737 58.6062
v  -3.9570 14.6954 42.0416
v  17.4453 26.5737 46.6613
v  13.6697 14.6954 32.2039
v  33.6225 125.0740 -41.9552
v  22.6157 77.0264 -37.7516
v  -3.9570 125.0740 -41.9552
v  -3.9570 77.0264 -37.7516
v  -30.5297 77.0264 -37.7516
v  -41.5365 125.0740 -41.9552
v  -30.5297 159.6551 -44.9806
v  -3.9570 173.9790 -46.2338
v  22.6157 159.6551 -44.9806
v  33.6225 125.9195 -32.2912
v  22.6157 77.8719 -28.0875
v  -3.9570 77.8719 -28.0875
v  -30.5297 77.8719 -28.0875
v  -41.5365 125.9195 -32.2912
v  -30.5297 160.5006 -35.3166
v  -3.9570 174.8245 -36.5698
v  22.6157 160.5006 -35.3166
v  -3.9570 123.0178 -32.0373
v  -3.9570 49.0033 16.2236
# 100 vertices

vn 0.6228 0.0000 -0.7824
vn 0.9992 0.0000 0.0404
vn 0.0000 0.0000 -1.0000
vn -0.6228 0.0000 -0.7824
vn -0.9992 0.0000 0.0404
vn -0.7707 0.0000 0.6373
vn -0.0000 0.0000 1.0000
vn 0.7707 0.0000 0.6373
vn 0.0000 1.0000 -0.0000
vn 0.0000 -1.0000 -0.0000
vn -0.9532 0.0000 0.3022
vn -0.4759 0.0000 0.8795
vn 0.4759 0.0000 0.8795
vn 0.9532 0.0000 0.3022
vn 0.9532 0.0000 -0.3022
vn 0.4759 0.0000 -0.8795
vn -0.4759 0.0000 -0.8795
vn -0.9532 0.0000 -0.3022
vn 0.6239 0.0000 -0.7815
vn 0.9991 0.0000 0.0419
vn 0.6239 -0.0000 -0.7815
vn -0.6239 0.0000 -0.7815
vn -0.9991 0.0000 0.0419
vn 0.6819 -0.2156 -0.6989
vn 0.8649 -0.4877 0.1191
vn 0.9198 -0.3902 -0.0424
vn 0.5403 -0.1717 -0.8238
vn -0.6824 -0.2169 -0.6980
vn -0.5412 -0.1711 -0.8233
vn -0.8648 -0.4879 0.1186
vn -0.9205 -0.3884 -0.0440
vn -0.4868 -0.7330 0.4751
vn -0.6425 -0.6659 0.3793
vn -0.0000 -0.8127 0.5827
vn 0.0000 -0.8127 0.5827
vn 0.4868 -0.7330 0.4751
vn 0.6425 -0.6659 0.3793
vn 0.5422 -0.8312 -0.1231
vn 0.6410 -0.7573 -0.1252
vn 0.5485 -0.8179 0.1739
vn 0.5386 -0.8257 0.1675
vn 0.2835 -0.8032 0.5239
vn 0.2794 -0.8193 0.5007
vn -0.2738 -0.8179 0.5060
vn -0.2917 -0.8011 0.5226
vn -0.5383 -0.8253 0.1707
vn -0.5502 -0.8173 0.1712
vn -0.6392 -0.7552 -0.1451
vn -0.5433 -0.8328 -0.1061
vn 0.7072 0.6881 -0.1627
vn 0.6162 0.7781 -0.1220
vn -0.6146 0.7760 -0.1414
vn -0.7096 0.6905 -0.1405
vn -0.6191 0.7604 0.1963
vn -0.6096 0.7697 0.1896
vn -0.3185 0.7431 0.5885
vn -0.3156 0.7620 0.5655
vn 0.3091 0.7604 0.5712
vn 0.3274 0.7407 0.5866
vn 0.6092 0.7692 0.1932
vn 0.6210 0.7597 0.1932
vn 0.0000 -0.0872 -0.9962
vn -0.0000 -0.0872 -0.9962
vn 0.9749 -0.2216 0.0194
vn 0.0000 -0.9962 0.0872
vn -0.9749 -0.2216 0.0194
vn -0.9532 0.3011 -0.0263
vn -0.4759 0.8762 -0.0767
vn 0.4759 0.8762 -0.0767
vn 0.9532 0.3011 -0.0263
vn 0.0000 0.0872 0.9962
vn -0.0000 0.0872 0.9962
vn -0.0000 1.0000 0.0000
vn 0.0000 1.0000 0.0000
vn -0.0000 1.0000 -0.0000
# 75 vertex normals

vt 0.8750 0.0000 0.0000
vt 0.8750 0.1250 0.0000
vt 0.7500 0.1250 0.0000
vt 0.7500 0.0000 0.0000
vt 1.0000 0.0000 0.0000
vt 1.0000 0.1250 0.0000
vt 0.1250 0.0000 0.0000
vt 0.1250 0.1250 0.0000
vt 0.0000 0.1250 0.0000
vt 0.0000 0.0000 0.0000
vt 0.2500 0.0000 0.0000
vt 0.2500 0.1250 0.0000
vt 0.3750 0.0000 0.0000
vt 0.3750 0.1250 0.0000
vt 0.5000 0.0000 0.0000
vt 0.5000 0.1250 0.0000
vt 0.6250 0.0000 0.0000
vt 0.6250 0.1250 0.0000
vt 0.7500 1.0000 0.0000
vt 0.8750 1.0000 0.0000
vt 0.1464 0.8536 0.0000
vt 0.5000 1.0000 0.0000
vt 1.0000 1.0000 0.0000
vt 0.0000 0.5000 0.0000
vt 0.0000 1.0000 0.0000
vt 0.1250 1.0000 0.0000
vt 0.1464 0.1464 0.0000
vt 0.2500 1.0000 0.0000
vt 0.3750 1.0000 0.0000
vt 0.8536 0.1464 0.0000
vt 1.0000 0.5000 0.0000
vt 0.6250 1.0000 0.0000
vt 0.8536 0.8536 0.0000
vt 0.5000 0.5000 0.0000
vt 0.7500 0.5000 0.0000
vt 0.8750 0.5000 0.0000
vt 0.1250 0.5000 0.0000
vt 0.2500 0.5000 0.0000
vt 0.3750 0.5000 0.0000
vt 0.6250 0.5000 0.0000
vt 0.7500 0.2500 0.0000
vt 0.8750 0.2500 0.0000
vt 1.0000 0.2500 0.0000
vt 0.0000 0.2500 0.0000
vt 0.1250 0.2500 0.0000
vt 0.2500 0.2500 0.0000
vt 0.3750 0.2500 0.0000
vt 0.5000 0.2500 0.0000
vt 0.6250 0.2500 0.0000
vt 0.4375 1.0000 0.0000
# 50 texture coords

g wccsesze
usemtl feher
s off
f 1/1/1 2/2/1 3/3/2 4/4/2 
f 5/5/3 6/6/3 2/2/1 1/1/1 
f 7/7/4 8/8/4 6/9/3 5/10/3 
f 9/11/5 10/12/5 8/8/4 7/7/4 
f 11/13/6 12/14/6 10/12/5 9/11/5 
f 13/15/7 14/16/7 12/14/6 11/13/6 
f 15/17/8 16/18/8 14/16/7 13/15/7 
f 4/4/2 3/3/2 16/18/8 15/17/8 
f 17/19/9 18/20/9 19/21/9 20/22/9 
f 18/20/9 21/23/9 22/24/9 19/21/9 
f 21/25/9 23/26/9 24/27/9 22/24/9 
f 23/26/9 25/28/9 26/15/9 24/27/9 
f 25/28/9 27/29/9 28/30/9 26/15/9 
f 27/29/9 29/22/9 30/31/9 28/30/9 
f 29/22/9 31/32/9 32/33/9 30/31/9 
f 31/32/9 17/19/9 20/22/9 32/33/9 
f 1/1/10 4/4/10 33/22/10 34/21/10 
f 4/4/10 15/17/10 35/33/10 33/22/10 
f 15/17/10 13/15/10 36/31/10 35/33/10 
f 13/15/10 11/13/10 37/30/10 36/31/10 
f 11/13/10 9/11/10 38/15/10 37/30/10 
f 9/11/10 7/7/10 39/27/10 38/15/10 
f 7/7/10 5/10/10 40/24/10 39/27/10 
f 5/5/10 1/1/10 34/21/10 40/24/10 
f 34/21/10 33/22/10 41/34/10 
f 33/22/10 35/33/10 41/34/10 
f 35/33/10 36/31/10 41/34/10 
f 36/31/10 37/30/10 41/34/10 
f 37/30/10 38/15/10 41/34/10 
f 38/15/10 39/27/10 41/34/10 
f 39/27/10 40/24/10 41/34/10 
f 40/24/10 34/21/10 41/34/10 
f 20/22/11 19/21/11 42/21/11 43/22/11 
f 19/21/12 22/24/12 44/24/12 42/21/12 
f 22/24/13 24/27/13 45/27/13 44/24/13 
f 24/27/14 26/15/14 46/15/14 45/27/14 
f 26/15/15 28/30/15 47/30/15 46/15/15 
f 28/30/16 30/31/16 48/31/16 47/30/16 
f 30/31/17 32/33/17 49/33/17 48/31/17 
f 32/33/18 20/22/18 43/22/18 49/33/18 
f 18/20/19 17/19/20 50/35/20 51/36/21 
f 21/23/3 18/20/19 51/36/21 52/31/3 
f 23/26/22 21/25/3 52/24/3 53/37/22 
f 25/28/23 23/26/22 53/37/22 54/38/23 
f 27/29/6 25/28/23 54/38/23 55/39/6 
f 29/22/7 27/29/6 55/39/6 56/34/7 
f 31/32/8 29/22/7 56/34/7 57/40/8 
f 17/19/20 31/32/8 57/40/8 50/35/20 
f 51/36/21 50/35/20 58/41/20 59/42/19 
f 52/31/3 51/36/21 59/42/19 60/43/3 
f 53/37/22 52/24/3 60/44/3 61/45/22 
f 54/38/23 53/37/22 61/45/22 62/46/23 
f 55/39/6 54/38/23 62/46/23 63/47/6 
f 56/34/7 55/39/6 63/47/6 64/48/7 
f 57/40/8 56/34/7 64/48/7 65/49/8 
f 50/35/20 57/40/8 65/49/8 58/41/20 
f 66/42/24 67/41/25 68/3/26 69/2/27 
f 70/43/3 66/42/24 69/2/27 71/6/3 
f 72/45/28 70/44/3 71/9/3 73/8/29 
f 74/46/30 72/45/28 73/8/29 75/12/31 
f 76/47/32 74/46/30 75/12/31 77/14/33 
f 78/48/34 76/47/32 77/14/33 79/16/35 
f 80/49/36 78/48/34 79/16/35 81/18/37 
f 67/41/25 80/49/36 81/18/37 68/3/26 
f 59/42/38 58/41/38 67/41/38 66/42/39 
f 58/41/40 65/49/40 80/49/40 67/41/41 
f 65/49/42 64/48/42 78/48/42 80/49/43 
f 64/48/44 63/47/44 76/47/44 78/48/45 
f 63/47/46 62/46/46 74/46/46 76/47/47 
f 62/46/48 61/45/48 72/45/48 74/46/49 
f 61/45/3 60/44/3 70/44/3 72/45/3 
f 60/43/3 59/42/3 66/42/3 70/43/3 
f 3/3/50 2/2/50 69/2/50 68/3/51 
f 2/2/3 6/6/3 71/6/3 69/2/3 
f 6/9/3 8/8/3 73/8/3 71/9/3 
f 8/8/52 10/12/52 75/12/52 73/8/53 
f 10/12/54 12/14/54 77/14/54 75/12/55 
f 12/14/56 14/16/56 79/16/56 77/14/57 
f 14/16/58 16/18/58 81/18/58 79/16/59 
f 16/18/60 3/3/60 68/3/60 81/18/61 
f 82/19/62 83/20/62 84/34/62 
f 83/20/62 85/23/62 84/34/62 
f 85/25/62 86/26/62 84/34/62 
f 86/26/62 87/28/62 84/34/62 
f 87/28/62 88/29/62 84/34/62 
f 88/29/62 89/22/62 84/34/62 
f 89/22/63 90/32/63 84/34/63 
f 90/32/62 82/19/62 84/34/62 
f 91/19/64 92/20/64 83/20/64 82/19/64 
f 92/20/65 93/23/65 85/23/65 83/20/65 
f 93/25/65 94/26/65 86/26/65 85/25/65 
f 94/26/66 95/28/66 87/28/66 86/26/66 
f 95/28/67 96/29/67 88/29/67 87/28/67 
f 96/29/68 97/22/68 89/22/68 88/29/68 
f 97/22/69 98/32/69 90/32/69 89/22/69 
f 98/32/70 91/19/70 82/19/70 90/32/70 
f 92/20/71 91/19/71 99/50/71 
f 91/19/71 98/32/71 99/50/71 
f 98/32/72 97/22/72 99/50/72 
f 97/22/71 96/29/71 99/50/71 
f 96/29/72 95/28/72 99/50/72 
f 95/28/72 94/26/72 99/50/72 
f 94/26/71 93/25/71 99/50/71 
f 93/23/71 92/20/71 99/50/71 
f 43/22/73 42/21/73 100/34/73 
f 42/21/73 44/24/73 100/34/73 
f 44/24/74 45/27/74 100/34/74 
f 45/27/74 46/15/74 100/34/74 
f 46/15/9 47/30/9 100/34/9 
f 47/30/9 48/31/9 100/34/9 
f 48/31/75 49/33/75 100/34/75 
f 49/33/75 43/22/75 100/34/75 
# 80 polygons - 32 triangles

