# 3ds Max Wavefront OBJ Exporter v0.97b - (c)2007 guruware
# File Created: 25.01.2015 14:38:50

mtllib wcpapirtekercs.mtl

#
# object wcpapirtekercs
#

v  -10.9382 2.4354 4.4348
v  -10.9382 6.0505 -1.8268
v  2.0191 6.0505 -1.8268
v  2.0191 2.4354 4.4348
v  -10.9382 13.2808 -1.8268
v  2.0191 13.2808 -1.8268
v  -10.9382 16.8960 4.4348
v  2.0191 16.8960 4.4348
v  -10.9382 13.2808 10.6964
v  2.0191 13.2808 10.6964
v  -10.9382 6.0505 10.6964
v  2.0191 6.0505 10.6964
v  -10.9382 9.6657 4.4348
v  2.0191 9.6657 4.4348
v  5.2831 12.9483 8.3381
v  2.2890 12.9483 8.3381
v  2.2890 7.5445 8.3381
v  5.2831 7.5445 8.3381
v  5.2831 12.9483 -6.8731
v  5.2831 7.5445 -6.8731
v  2.2890 7.5445 -6.8731
v  2.2890 12.9483 -6.8731
v  -11.0912 12.9483 8.3381
v  -14.0852 12.9483 8.3381
v  -14.0852 7.5445 8.3381
v  -11.0912 7.5445 8.3381
v  -11.0912 12.9483 -6.8731
v  -11.0912 7.5445 -6.8731
v  -14.0852 7.5445 -6.8731
v  -14.0852 12.9483 -6.8731
# 30 vertices

vn 0.0000 -1.0000 -0.0000
vn 0.0000 -0.5000 -0.8660
vn -0.0000 0.5000 -0.8660
vn -0.0000 1.0000 0.0000
vn -0.0000 0.5000 0.8660
vn 0.0000 -0.5000 0.8660
vn -1.0000 -0.0000 -0.0000
vn -1.0000 -0.0000 0.0000
vn 1.0000 0.0000 -0.0000
vn 1.0000 0.0000 0.0000
vn 0.0000 0.0000 1.0000
vn 0.0000 0.0000 -1.0000
vn -1.0000 0.0000 -0.0000
vn 0.0000 1.0000 -0.0000
vn -0.0000 1.0000 -0.0000
# 15 vertex normals

vt 0.7500 0.0000 0.0000
vt 0.9167 0.0000 0.0000
vt 0.9167 1.0000 0.0000
vt 0.7500 1.0000 0.0000
vt 1.0833 0.0000 0.0000
vt 1.0833 1.0000 0.0000
vt 0.0833 0.0000 0.0000
vt 0.2500 0.0000 0.0000
vt 0.2500 1.0000 0.0000
vt 0.0833 1.0000 0.0000
vt 0.4167 0.0000 0.0000
vt 0.4167 1.0000 0.0000
vt 0.5833 0.0000 0.0000
vt 0.5833 1.0000 0.0000
vt 0.5000 0.5000 0.0000
vt 1.0000 0.0000 0.0000
vt 1.0000 1.0000 0.0000
vt 0.0000 1.0000 0.0000
vt 0.0000 0.0000 0.0000
# 19 texture coords

g wcpapirtekercs
usemtl feher
s off
f 1/1/1 2/2/2 3/3/2 4/4/1 
f 2/2/2 5/5/3 6/6/3 3/3/2 
f 5/7/3 7/8/4 8/9/4 6/10/3 
f 7/8/4 9/11/5 10/12/5 8/9/4 
f 9/11/5 11/13/6 12/14/6 10/12/5 
f 11/13/6 1/1/1 4/4/1 12/14/6 
f 2/2/7 1/1/7 13/15/7 
f 1/1/8 11/13/8 13/15/8 
f 11/13/7 9/11/7 13/15/7 
f 9/11/7 7/8/7 13/15/7 
f 7/8/8 5/7/8 13/15/8 
f 5/5/7 2/2/7 13/15/7 
f 4/4/9 3/3/9 14/15/9 
f 3/3/9 6/6/9 14/15/9 
f 6/10/10 8/9/10 14/15/10 
f 8/9/10 10/12/10 14/15/10 
f 10/12/10 12/14/10 14/15/10 
f 12/14/10 4/4/10 14/15/10 
f 15/16/11 16/17/11 17/18/11 18/19/11 
f 19/19/12 20/16/12 21/17/12 22/18/12 
f 15/19/9 18/16/9 20/17/9 19/18/9 
f 18/19/1 17/16/1 21/17/1 20/18/1 
f 17/19/13 16/16/13 22/17/13 21/18/13 
f 16/19/14 15/16/14 19/17/14 22/18/14 
f 23/16/11 24/17/11 25/18/11 26/19/11 
f 27/19/12 28/16/12 29/17/12 30/18/12 
f 23/19/9 26/16/9 28/17/9 27/18/9 
f 26/19/1 25/16/1 29/17/1 28/18/1 
f 25/19/7 24/16/7 30/17/7 29/18/7 
f 24/19/15 23/16/15 27/17/15 30/18/15 
# 18 polygons - 12 triangles

